/* XPM */
static const char *collectible[] = {
/* columns rows colors chars-per-pixel */
"64 64 16 1 ",
"  c #052A3A",
". c #47141D",
"X c #065254",
"o c #106D54",
"O c #801620",
"+ c #C41B24",
"@ c #EB262E",
"# c #A66E3A",
"$ c #F6464E",
"% c #1F882C",
"& c #4BA837",
"* c #7BC04E",
"= c #E8954D",
"- c #EE9D51",
"; c #F0A254",
": c #B3D66D",
/* pixels */
"----------------------------------------------------------------",
"----------------------------------------------------------------",
"----------------------------------------------------------------",
"----------------------------------------------------------------",
"====--------========--------------------------------------------",
"====--------========--------------------------------------------",
"====--------========--------------------------------------------",
"====--------========--------------------------------------------",
"========--------========----;;;;;;;;--------;;;;;;;;;;;;--------",
"========--------========----;;;;;;;;--------;;;;;;;;;;;;--------",
"========--------========----;;;;;;;;--------;;;;;;;;;;;;--------",
"========--------========----;;;;;;;;--------;;;;;;;;;;;;--------",
"------------------------------------------------;;;;;;;;;;;;----",
"------------------------------------------------;;;;;;;;;;;;----",
"------------------------------------------------;;;;;;;;;;;;----",
"------------------------------------------------;;;;;;;;;;;;----",
"------------;;;;;;;;;;;;--------================----------------",
"------------;;;;;;;;;;;;--------================----------------",
"------------;;;;;;;;;;;;--------================----------------",
"------------;;;;;;;;;;;;--------================----------------",
"--------;;;;;;;;;;;;----------------========--------;;;;;;;;;;;;",
"--------;;;;;;;;;;;;----------------========--------;;;;;;;;;;;;",
"--------;;;;;;;;;;;;----------------========--------;;;;;;;;;;;;",
"--------;;;;;;;;;;;;----------------========--------;;;;;;;;;;;;",
"--------------------------------------------------------;;;;;;;;",
"--------------------------------------------------------;;;;;;;;",
"--------------------------------------------------------;;;;;;;;",
"--------------------------------------------------------;;;;;;;;",
"--------------------------------------------;;;;;;;;------------",
"--------------------------------------------;;;;;;;;------------",
"-------------------------XXXXXXX------------;;;;;;;;------------",
"-------------------------XXXXXXX------------;;;;;;;;------------",
"----========----;;;;;;;;;XX*****oooooooXXXX;;;;;----------------",
"----========----;;;;;;;;;XX*****oooooooXXXX;;;;;----------------",
"----========----;;;;;;;oooooooXX..OOOOO**XX;;;;;----------------",
"----========----;;;;;;;oooooooXX..OOOOO**XX;;;;;----------------",
"--------------------;;;oooooooXX..OOOOO**XX---------------------",
"------------------XXXXXoo*****..++$$$  XXXX---------------------",
"------------------XXXXXoo*****..++$$$  XXXX---------------------",
"------------------XXX****XX&&&..@@   &&**XX---------------------",
"------------------XXX****XX&&&..@@   &&**XX-----========--------",
"------------------XXX**XX&&       %%%&&    XXX--========--------",
"------------------XXX**XX&&       %%%&&    XXX--========--------",
"---------------------ooXXXX&&&**       **::XXX--========--------",
"--------;;;;;;;;-----ooXXXX&&&**       **::XXX==============----",
"--------;;;;;;;;-----ooXXXX&&&**       **::XXX==============----",
"--------;;;;;;;;-----oo::::   &&  +++++..XX-================----",
"--------;;;;;;;;-----oo::::   &&  +++++..XX-================----",
"-----------------------oo..+++    @@@$$OO-----------------------",
"-----------------------oo..+++    @@@$$OO-----------------------",
"-------------------------OO$$$  %%.....OOXX---------------------",
"-------------------------OO$$$  %%.....OOXX---------------------",
"--------;;;;;;;;;;;;-----OO$$$  %%.....OOXX-;;;;;;;;;;;;--------",
"--------;;;;;;;;;;;;-------OOO  &&     XXXX-;;;;;;;;;;;;--------",
"--------;;;;;;;;;;;;-------OOO  &&     XXXX-;;;;;;;;;;;;--------",
"--------;;;;;;;;;;;;--------==  &&   ===----;;;;;;;;;;;;--------",
"====--------;;;;;;;;;;;;------  &&   ---;;;;;;;;;;;;--------====",
"====--------;;;;;;;;;;;;---###  &&   ##-;;;;;;;;;;;;--------====",
"====--------;;;;;;;;;;;;---###  &&   ##-;;;;;;;;;;;;--------====",
"====--------;;;;;;;;;;;;------#######---;;;;;;;;;;;;--------====",
"========----------------------#######-------------------========",
"========----------------------#######-------------------========",
"========------------------------------------------------========",
"========------------------------------------------------========"
};
