/* XPM */
static const char *enemies_1[] = {
/* columns rows colors chars-per-pixel */
"64 64 105 2 ",
"   c #14151D",
".  c #17181F",
"X  c #1A1A1F",
"o  c #221D1F",
"O  c #1A1A20",
"+  c #231E20",
"@  c #242424",
"#  c #2B2321",
"$  c #2A2B27",
"%  c #312926",
"&  c #3A2D27",
"*  c #3B2E28",
"=  c #34312B",
"-  c #3C322A",
";  c #343332",
":  c #3E3732",
">  c #3C3C33",
",  c #3A3A39",
"<  c #40342B",
"1  c #443E2E",
"2  c #523E2E",
"3  c #453E32",
"4  c #54412F",
"5  c #4A4536",
"6  c #45453D",
"7  c #4B4738",
"8  c #4C4939",
"9  c #564330",
"0  c #544836",
"q  c #594D37",
"w  c #534B3B",
"e  c #594C3D",
"r  c #5D5139",
"t  c #614E36",
"y  c #684C31",
"u  c #624F38",
"i  c #645137",
"p  c #6D5035",
"a  c #645238",
"s  c #6C553A",
"d  c #745334",
"f  c #795536",
"g  c #7F5836",
"h  c #705539",
"j  c #735A3D",
"k  c #7A5939",
"l  c #79603E",
"z  c #4C4C45",
"x  c #504F48",
"c  c #4D524D",
"v  c #5C5442",
"b  c #4F5650",
"n  c #645742",
"m  c #645A41",
"M  c #775F40",
"N  c #7E6340",
"B  c #815836",
"V  c #815C3A",
"C  c #8B613B",
"Z  c #94663D",
"A  c #96693F",
"S  c #9C6B3E",
"D  c #B0723F",
"F  c #8D6B43",
"G  c #936E43",
"H  c #9A6E42",
"J  c #9E7243",
"K  c #99734A",
"L  c #997750",
"P  c #A16F40",
"I  c #A57342",
"U  c #AB7644",
"Y  c #AF7A46",
"T  c #A2794B",
"R  c #AD7B4A",
"E  c #B37441",
"W  c #B57A43",
"Q  c #BA7D45",
"!  c #B27F48",
"~  c #B3824A",
"^  c #BF8248",
"/  c #C18147",
"(  c #CC8647",
")  c #C28449",
"_  c #CD8B4B",
"`  c #D58D4B",
"'  c #DC8E4B",
"]  c #D6914D",
"[  c #DD934E",
"{  c #D49150",
"}  c #E0944D",
"|  c #E3964E",
" . c #E7954D",
".. c #E8954D",
"X. c #E6984F",
"o. c #E29750",
"O. c #E29A51",
"+. c #E49B52",
"@. c #E59C52",
"#. c #EA9B50",
"$. c #E99E52",
"%. c #EE9D51",
"&. c #EEA153",
"*. c #EFA254",
"=. c #F0A254",
/* pixels */
"%.%.%.%.%.%.%.%.%.%.%.%.%.%.%.%.%.%.%.%.%.%.%.%.%.%.%.%.%.%.%.%.%.%.%.%.%.%.%.%.%.%.%.%.%.%.%.%.%.%.%.%.%.%.%.%.%.%.%.%.%.%.%.%.",
"%.%.%.%.%.%.%.%.%.%.%.%.%.%.%.%.%.%.%.%.%.%.%.%.%.%.%.%.%.%.%.%.%.%.%.%.%.%.%.%.%.%.%.%.%.%.%.%.%.%.%.%.%.%.%.%.%.%.%.%.%.%.%.%.",
"%.%.%.%.%.%.%.%.%.%.%.%.%.%.%.%.%.%.%.%.%.%.%.%.%.%.%.%.%.%.%.%.%.%.%.%.%.%.%.%.%.%.%.%.%.%.%.%.%.%.%.%.%.%.%.%.%.%.%.%.%.%.%.%.",
"%.%.%.%.%.%.%.%.%.%.%.%.%.%.%.%.%.%.%.%.%.%.%.%.%.%.%.%.%.%.%.%.%.%.%.%.%.%.%.%.%.%.%.%.%.%.%.%.%.%.%.%.%.%.%.%.%.%.%.%.%.%.%.%.",
"........%.%.%.%.%.%.%.%.................%.%.%.%.%.%.%.%.%.%.%.%.%.%.%.%.%.%.%.%.%.%.%.%.%.%.%.%.%.%.%.%.%.%.%.%.%.%.%.%.%.%.%.%.",
"........%.%.%.%.%.%.%.%.................%.%.%.%.%.%.%.%.%.%.%.%.%.%.%.%.%.%.%.%.%.%.%.%.%.%.%.%.%.%.%.%.%.%.%.%.%.%.%.%.%.%.%.%.",
"........%.%.%.%.%.%.%.%.................%.%.%.%.%.%.%.%.%.%.%.%.%.%.%.%.%.%.%.%.%.%.%.%.%.%.%.%.%.%.%.%.%.%.%.%.%.%.%.%.%.%.%.%.",
"........%.%.%.%.%.%.%.%.................%.%.%.%.%.%.%.%.%.%.%.%.%.%.%.%.%.%.%.%.%.%.%.%.%.%.%.%.%.%.%.%.%.%.%.%.%.%.%.%.%.%.%.%.",
"................%.%.%.%.%.%.%.%.................%.%.%.%.=.=.=.=.=.=.=.=.%.%.%.%.%.%.%.%.=.=.=.=.=.=.=.=.=.=.=.=.%.%.%.%.%.%.%.%.",
"................%.%.%.%.%.%.%.%.................%.%.%.%.=.=.=.=.=.=.=.=.%.%.%.%.%.%.%.%.=.=.=.=.=.=.=.=.=.=.=.=.%.%.%.%.%.%.%.%.",
"................%.%.%.%.%.%.%.%.................%.%.%.%.=.=.=.=.=.=.=.=.%.%.%.%.%.%.%.%.=.=.=.=.=.=.=.=.=.=.=.=.%.%.%.%.%.%.%.%.",
"................%.%.%.%.%.%.%.%.................%.%.%.%.=.=.=.=.=.=.=.=.%.%.%.%.%.%.%.%.=.=.=.=.=.=.=.=.=.=.=.=.%.%.%.%.%.%.%.%.",
"%.%.%.%.%.%.%.%.%.%.%.%.%.%.%.%.%.%.%.%.%.%.%.%.%.%.%.%.%.%.%.%.%.%.%.%.%.%.1 d / Q | ! v q q %.=.=.=.=.=.=.=.=.=.=.=.=.%.%.%.%.",
"%.%.%.%.%.%.%.%.%.%.%.%.%.%.%.%.%.%.%.%.%.%.%.%.%.%.%.%.%.%.%.%.%.%.%.%.%.%.t 5 @ O 2 6 z C C %.=.=.=.=.=.=.=.=.=.=.=.=.%.%.%.%.",
"%.%.%.%.%.%.%.%.%.%.%.%.%.%.%.%.%.%.%.%.%.%.%.%.%.%.%.%.%.%.%.%.%.%.%.%.%.%.` I < X d R ^ %.%.%.=.=.=.=.=.=.=.=.=.=.=.=.%.%.%.%.",
"%.%.%.%.%.%.%.%.%.%.%.%.%.%.%.%.%.%.%.%.%.%.%.%.%.%.%.%.%.%.%.%.%.%.%.%.%.%.%.%.%.%.%.%.%.%.%.%.=.=.=.=.=.=.=.=.=.=.=.=.%.%.%.%.",
"%.%.%.%.%.%.%.%.%.%.%.%.=.=.=.=.a 1 d ) Q O.~ v q %.%.%.%.%.%.%.................................%.%.%.%.%.%.%.%.%.%.%.%.%.%.%.%.",
"%.%.%.%.%.%.%.%.%.%.%.%.=.=.=.=.A u 5 @ O 4 6 z C %.%.%.%.%.%.%.................................%.%.%.%.%.%.%.%.%.%.%.%.%.%.%.%.",
"%.%.%.%.%.%.%.%.%.%.%.%.=.=.=.=.=.] I < X d R ) %.%.%.%.%.%.%.%.................................%.%.%.%.%.%.%.%.%.%.%.%.%.%.%.%.",
"%.%.%.%.%.%.%.%.%.%.%.%.=.=.=.=.=.=.=.=.=.=.=.=.%.%.%.%.%.%.%.%.................................%.%.%.%.%.%.%.%.%.%.%.%.%.%.%.%.",
"%.%.%.%.%.%.%.%.=.=.=.=.=.=.=.=.=.=.=.=.%.%.%.%.%.` ] | %.%.[ X.%.$.+.%.................%.%.%.%.%.%.%.%.=.=.=.=.=.=.=.=.=.=.=.=.",
"%.%.%.%.%.%.%.%.=.=.=.=.=.=.=.=.=.=.=.=.%.%.%.%.%.V 3 1 g Z B W ] ^ T K Q ..............%.%.%.%.%.%.%.%.=.=.=.=.=.=.=.=.=.=.=.=.",
"%.%.%.%.%.%.[ r 1 y O.O.O.&.@.N q r =.=.%.%.%.%.F e w w = O . - y 6 c z C ......q q l [ %.[ [ | y 1 r [ *.=.=.=.=.=.=.=.=.=.=.=.",
"%.%.%.%.%.| r 2 7 8 # + + I r b z 2 =.=.%.%.%.%.R M V h 7 $ @ @ & e r a J ......2 z b q P + + # 8 7 2 r +.=.=.=.=.=.=.=.=.=.=.=.",
"%.%.%.%.%.%.G N s 0 > @ @ # , w V | %.%.%.%.%.%.%.%.X.X.S &   2 ` %.#.+.o.%.%.%.| V w , # @ @ > 0 s N G %.%.%.%.=.=.=.=.=.=.=.=.",
"%.%.%.%.%.%.[ _ ] | f + @ W | | X.%.%.%.%.%.%.%.%.%.%.%.%.%.%.%.%.%.%.%.%.%.%.%.%.X.| | W @ + f | ] _ [ %.%.%.%.=.=.=.=.=.=.=.=.",
"%.%.%.%.%.%.%.%.%.%.%.%.%.%.%.%.%.%.%.%.%.%.%.%.%.%.%.%.%.%.%.%.%.%.%.%.%.%.%.%.%.%.%.%.%.%.%.%.%.%.%.%.%.%.%.%.=.=.=.=.=.=.=.=.",
"%.%.%.%.%.%.%.%.%.%.%.%.%.%.%.%.%.%.%.%.%.%.%.%.%.%.%.%.%.%.%.%.%.%.%.%.%.%.%.%.%.%.%.%.%.%.%.%.%.%.%.%.%.%.%.%.=.=.=.=.=.=.=.=.",
"%.%.%.%.%.%.%.%.%.%.%.%.%.%.%.%.%.%.%.%.%.%.%.%.%.%.%.%.%.%.%.%.%.%.%.%.%.%.%.%.%.%.%.%.=.=.=.=.=.=.=.=.%.%.%.%.%.%.%.%.%.%.%.%.",
"%.%.%.%.%.%.%.%.%.%.%.%.%.%.%.%.%.C y | [ [ %.%.%.%.%.%.%.%.%.%.%.%.%.%.%.%.%.%.%.%.%.%.=.=.=.=.=.=.=.=.%.%.%.%.%.%.%.%.%.%.%.%.",
"%.%.%.%.%.%.%.%.%.%.%.%.%.%.%.%./ 7 8 # + + P J L { %.%.%.%.%.%.%.%.%.%.%.%.%.%.%.%.%.%.=.=.=.=.=.=.=.=.%.%.%.%.%.%.%.%.%.%.%.%.",
"%.%.%.%.%.%.%.%.%.%.%.%.%.%.%.%.X.V 0 > @ @ # , w V %.%.%.%.%.%.%.%.[ [ | y C %.%.%.%.%.=.=.=.=.=.q v ~ | Q / d 1 a %.%.%.%.%.%.",
"%.%.%.%.................%.%.%.%.=.$.O.k + @ W O.+.$.=.=.%.%.{ L J P + + # 8 7 / =.=.=.=.=.=.=.=.%.C z 6 2 O @ 5 t Z %.%.%.%.%.%.",
"%.%.%.%.................%.%.%.%.=.=.=.=.=.=.=.=.=.=.=.=.%.%.V 3 ; # @ @ > 0 V X.=.=.=.=.=.=.=.=.%.%.^ R d X < I ` %.%.%.%.%.%.%.",
"%.%.%.%.................%.%.%.%.=.=.=.=.=.=.=.=.=.=.=.=.%.%.X.d d W @ + f | X.%.=.=.=.=.=.=.=.=.%.%.%.%.%.%.%.%.%.%.%.%.%.%.%.%.",
"%.%.%.%.....i 1 d Q E ' ! v q %.=.=.=.=.=.=.=.=.=.=.=.=.%.%.%.%.%.%.%.%.%.%.%.%.=.=.=.q v ~ O.Q / d 1 a %.%.%.%.%.%.%.%.%.%.%.%.",
"%.%.%.%.%.%.Z t 5 @ O 2 6 z C %.%.%.%.%.=.=.=.=.=.=.=.=.=.=.=.=.%.%.%.%.%.%.%.%.%.%.%.C z 6 2 O @ 5 t Z %.%.%.%.%.%.%.%.%.%.%.%.",
"%.%.%.%.%.%.%.` I < X d R ^ %.%.%.%.%.%.=.=.=.=.=.=.=.=.=.=.=.=.%.%.%.%.%.%.%.%.%.%.%.%.^ R d X < I ` %.%.%.%.%.%.%.%.%.%.%.%.%.",
"%.%.%.%.%.%.%.%.%.%.%.%.%.%.%.%.X.Q ) [ k + @ W O.C W %.=.=.=.=.%.%.%.%.%.%.%.%.%.%.%.%.%.%.%.%.%.%.%.%.%.%.%.%.%.%.%.%.%.%.%.%.",
"%.%.%.%.%.%.%.%.%.%.%.%.%.%.%.%.C f * 5 > @ @ # , : # Q =.=.j 8 m ~ %.%.%.U 1 3 q %.%.%.%.%.%.%.%.%.%.%.%.%.%.%.%.%.%.%.%.%.%.%.",
"%.%.%.%.%.%.%.%.%.%.%.%.%.%.%.%.%._ j r # + + P r b z ] =.=.I w z n W @ + t 5 t f X.%.%.%.%.%.%.................%.%.%.%.%.%.%.%.",
"%.%.%.%.%.%.%.%.%.%.%.%.%.%.%.%.%.%.%.%.%.| | %.*.%.*.=.=.=.W % : , # @ @ > 3 * d C %.%.%.%.%.%.' ( ' ' ' ....` +.%.%.%.%.%.%.%.",
"%.%.%.%.%.) U U _ %.%.%.| X.%.%.%.%.%.%.%.%.%.%.=.=.=.=.=.=.] z b r I + + # r j _ %.%.%.%.%.%.t 7 8 # + + S q b x #.%.%.%.%.%.%.",
"%.%.%.%.%.[ k s p X < H a H %.%.%.%.%.%.%.%.%.%.=.=.=.=.=.=.=.*.%.*.=.O.| %.%.%.%.%.%.%.%.%.#./ B 0 > @ @ @ , 5 - | %.%.%.%.%.%.",
"%.%.%.%.%.[ v w 9 O @ 5 t Y =.=.%.%.%.%.%.%.%.%.%.%.%.%.%.%.%.%.%.%.%.%.%.%.%.%.%.%.%.%.........| ' f o + D I ) `  .....%.%.%.%.",
"%.%.%.%.%.%.%.%.$./ &.*.*.&.=.=.%.%.%.%.%.%.%.%.%.%.%.%.%.%.%.%.%.%.%.%.%.%.%.%.%.%.%.%.................................%.%.%.%.",
"%.%.%.%.%.%.%.%.=.=.=.=.=.=.=.=.%.%.%.%.%.%.%.%.%.%.%.%.%.%.%.%.%.%.%.%.%.%.X.| %.%.%._ I I Q ..........................%.%.%.%.",
"%.%.%.%.%.%.%.%.=.=.=.=.=.=.=.=.%.%.%.%.%.%.%.%.%.%.%.%.%.%.%.%.%.%.%.%.%.%.H a H < X p s k ' ..........................%.%.%.%.",
"%.%.%.%.%.%.%.%.%.%.%.%.%.%.%.%.%.%.%.%.%.%.%.q v ! | Q / d 1 a ........%.%.U t 5 @ O 4 w v [ %.%.%.%.%.%.%.%.%.%.%.%.%.%.%.%.%.",
"%.%.%.%.%.%.%.%.%.%.%.%.%.%.%.%.%.%.%.%.%.%.%.C z 6 2 O @ 5 t Z ........%.%.$.%.%.%.Q +.%.%.%.%.%.%.%.%.%.%.%.%.%.%.%.%.%.%.%.%.",
"%.%.%.%.%.%.%.%.%.%.%.%.%.%.%.%.%.%.%.%.%.%.%.%.^ R d X < I ` %.........%.%.%.%.%.%.%.%.%.%.%.%.%.%.%.%.%.%.%.%.%.%.%.%.%.%.%.%.",
"%.%.%.%.%.%.%.%.%.%.%.%.%.%.%.%.%.%.%.%.%.%.%.%.%.%.%.%.%.%.%.%.........%.%.%.%.%.%.%.%.%.%.%.%.%.%.%.%.%.%.%.%.%.%.%.%.%.%.%.%.",
"%.%.%.%.%.%.%.%.=.=.=.=.=.=.=.=.=.=.=.=.%.%.%.%.%.%.%.%.........................%.%.%.%.=.=.=.=.=.=.=.=.=.=.=.=.%.%.%.%.%.%.%.%.",
"%.%.%.%.%.%.%.%.=.=.=.=.=.=.=.=.=.=.=.=.%.%.%.%.%.%.%.%.........................%.%.%.%.=.=.=.=.=.=.=.=.=.=.=.=.%.%.%.%.%.%.%.%.",
"%.%.%.%.%.%.%.%.=.=.=.=.=.=.=.=.=.=.=.=.%.%.%.%.%.%.%.%.........................%.%.%.%.=.=.=.=.=.=.=.=.=.=.=.=.%.%.%.%.%.%.%.%.",
"%.%.%.%.%.%.%.%.=.=.=.=.=.=.=.=.=.=.=.=.%.%.%.%.%.%.%.%.........................%.%.%.%.=.=.=.=.=.=.=.=.=.=.=.=.%.%.%.%.%.%.%.%.",
"........%.%.%.%.%.%.%.%.=.=.=.=.=.=.=.=.=.=.=.=.%.%.%.%.%.%.%.%.%.%.%.%.%.%.%.%.=.=.=.=.=.=.=.=.=.=.=.=.%.%.%.%.%.%.%.%.........",
"........%.%.%.%.%.%.%.%.=.=.=.=.=.=.=.=.=.=.=.=.%.%.%.%.%.%.%.%.%.%.%.%.%.%.%.%.=.=.=.=.=.=.=.=.=.=.=.=.%.%.%.%.%.%.%.%.........",
"........%.%.%.%.%.%.%.%.=.=.=.=.=.=.=.=.=.=.=.=.%.%.%.%.%.%.%.%.%.%.%.%.%.%.%.%.=.=.=.=.=.=.=.=.=.=.=.=.%.%.%.%.%.%.%.%.........",
"........%.%.%.%.%.%.%.%.=.=.=.=.=.=.=.=.=.=.=.=.%.%.%.%.%.%.%.%.%.%.%.%.%.%.%.%.=.=.=.=.=.=.=.=.=.=.=.=.%.%.%.%.%.%.%.%.........",
"................%.%.%.%.%.%.%.%.%.%.%.%.%.%.%.%.%.%.%.%.%.%.%.%.%.%.%.%.%.%.%.%.%.%.%.%.%.%.%.%.%.%.%.%.%.%.%.%.................",
"................%.%.%.%.%.%.%.%.%.%.%.%.%.%.%.%.%.%.%.%.%.%.%.%.%.%.%.%.%.%.%.%.%.%.%.%.%.%.%.%.%.%.%.%.%.%.%.%.................",
"................%.%.%.%.%.%.%.%.%.%.%.%.%.%.%.%.%.%.%.%.%.%.%.%.%.%.%.%.%.%.%.%.%.%.%.%.%.%.%.%.%.%.%.%.%.%.%.%.................",
"................%.%.%.%.%.%.%.%.%.%.%.%.%.%.%.%.%.%.%.%.%.%.%.%.%.%.%.%.%.%.%.%.%.%.%.%.%.%.%.%.%.%.%.%.%.%.%.%................."
};
