/* XPM */
static const char *enemies_2[] = {
/* columns rows colors chars-per-pixel */
"64 64 106 2 ",
"   c #14151D",
".  c #17181F",
"X  c #1A1A1F",
"o  c #1A1A20",
"O  c #231E20",
"+  c #242324",
"@  c #2B2322",
"#  c #2A2A27",
"$  c #2C2B29",
"%  c #3A2E27",
"&  c #3B2D28",
"*  c #34312B",
"=  c #3C332A",
"-  c #3E3732",
";  c #3B3C33",
":  c #3A3A39",
">  c #41342B",
",  c #453D2E",
"<  c #523E2D",
"1  c #443F31",
"2  c #54412F",
"3  c #4A4536",
"4  c #45453D",
"5  c #4B4738",
"6  c #4C4938",
"7  c #534736",
"8  c #584130",
"9  c #544836",
"0  c #584C37",
"q  c #534B3B",
"w  c #594C3D",
"e  c #5E5037",
"r  c #5C513A",
"t  c #624D36",
"y  c #684D31",
"u  c #624F38",
"i  c #645137",
"p  c #6D5035",
"a  c #645239",
"s  c #6D553A",
"d  c #745334",
"f  c #7A5636",
"g  c #7F5836",
"h  c #705539",
"j  c #745B3D",
"k  c #7A5939",
"l  c #7B623F",
"z  c #4C4C45",
"x  c #504F48",
"c  c #4D524D",
"v  c #575043",
"b  c #5C5441",
"n  c #4F5650",
"m  c #775F40",
"M  c #7E6541",
"N  c #815836",
"B  c #825D3A",
"V  c #8B623B",
"C  c #94653D",
"Z  c #96693F",
"A  c #9C6B3E",
"S  c #8D6B43",
"D  c #9A6E42",
"F  c #937044",
"G  c #9E7243",
"H  c #967048",
"J  c #9F7549",
"K  c #997750",
"L  c #A16F40",
"P  c #A57342",
"I  c #AC7744",
"U  c #AD7B4A",
"Y  c #B17440",
"T  c #B57A44",
"R  c #BA7D45",
"E  c #B27F48",
"W  c #B3824A",
"Q  c #BF8148",
"!  c #C08147",
"~  c #CC8647",
"^  c #C38449",
"/  c #C98749",
"(  c #CE8A4B",
")  c #D48D4B",
"_  c #DB8E4B",
"`  c #CF904E",
"'  c #D6914D",
"]  c #DD934D",
"[  c #D49150",
"{  c #DD9750",
"}  c #DD9851",
"|  c #E2924C",
" . c #E1954E",
".. c #E4944D",
"X. c #E5944D",
"o. c #E8954D",
"O. c #E7994F",
"+. c #E29A52",
"@. c #E49B52",
"#. c #E59C52",
"$. c #EA9B50",
"%. c #E99D52",
"&. c #EE9D51",
"*. c #EEA153",
"=. c #EFA154",
"-. c #F0A254",
/* pixels */
"&.&.&.&.&.&.&.&.&.&.&.&.&.&.&.&.&.&.&.&.&.&.&.&.&.&.&.&.&.&.&.&.&.&.&.&.&.&.&.&.&.&.&.&.&.&.&.&.&.&.&.&.&.&.&.&.&.&.&.&.&.&.&.&.",
"&.&.&.&.&.&.&.&.&.&.&.&.&.&.&.&.&.&.&.&.&.&.&.&.&.&.&.&.&.&.&.&.&.&.&.&.&.&.&.&.&.&.&.&.&.&.&.&.&.&.&.&.&.&.&.&.&.&.&.&.&.&.&.&.",
"&.&.&.&.&.&.&.&.&.&.&.&.&.&.&.&.&.&.&.&.&.&.&.&.&.&.&.&.&.&.&.&.&.&.&.&.&.&.&.&.&.&.&.&.&.&.&.&.&.&.&.&.&.&.&.&.&.&.&.&.&.&.&.&.",
"&.&.&.&.&.&.&.&.&.&.&.&.&.&.&.&.&.&.&.&.&.&.&.&.&.&.&.&.&.&.&.&.&.&.&.&.&.&.&.&.&.&.&.&.&.&.&.&.&.&.&.&.&.&.&.&.&.&.&.&.&.&.&.&.",
"o.o.o.o.&.&.&.&.&.&.&.&.o.o.o.o.o.o.o.o.&.&.&.&.&.&.&.&.&.&.&.&.&.&.&.&.&.&.&.&.&.&.&.&.&.&.&.&.&.&.&.&.&.&.&.&.&.&.&.&.&.&.&.&.",
"o.o.o.o.&.&.&.&.&.&.&.&.o.o.o.o.o.o.o.o.&.&.&.&.&.&.&.&.&.&.&.&.&.&.&.&.&.&.&.&.&.&.&.&.&.&.&.&.&.&.&.&.&.&.&.&.&.&.&.&.&.&.&.&.",
"o.o.o.o.&.&.&.&.&.&.&.&.o.o.o.o.o.o.o.o.&.&.&.&.&.&.&.&.&.&.&.&.&.&.&.&.&.&.&.&.&.&.&.&.&.&.&.&.&.&.&.&.&.&.&.&.&.&.&.&.&.&.&.&.",
"o.o.o.o.&.&.&.&.&.&.&.&.o.o.o.o.o.o.o.o.&.&.&.&.&.&.&.&.&.&.&.&.&.&.&.&.&.&.&.&.&.&.&.&.&.&.&.&.&.&.&.&.&.&.&.&.&.&.&.&.&.&.&.&.",
"o.o.o.o.o.o.o.o.&.&.&.&.&.&.&.&.o.o.o.o.o.o.o.o.&.&.&.&.-.-.-.-.-.-.-.-.&.&.&.&.&.&.&.&.-.-.-.-.-.-.-.-.-.-.-.-.&.&.&.&.&.&.&.&.",
"o.o.o.o.o.o.o.o.&.&.&.&.&.&.&.&.o.o.o.o.o.o.o.o.&.&.&.&.-.-.-.-.-.-.-.-.&.&.&.&.&.&.&.&.-.-.-.-.-.-.-.-.-.-.-.-.&.&.&.&.&.&.&.&.",
"o.o.o.o.o.o.o.o.&.&.&.&.&.&.&.&.o.o.o.o.o.o.o.o.&.&.&.&.-.-.-.-.-.-.-.-.&.&.&.&.&.&.&.&.-.-.-.-.-.-.-.-.-.-.-.-.&.&.&.&.&.&.&.&.",
"o.o.o.o.o.o.o.o.&.&.&.&.&.&.&.&.o.o.o.o.o.o.o.o.&.&.&.&.-.-.-.-.-.-.-.-.&.&.&.&.&.&.&.&.-.-.-.-.-.-.-.-.-.-.-.-.&.&.&.&.&.&.&.&.",
"&.&.&.&.&.&.&.&.&.&.&.&.&.&.&.&.&.&.&.&.&.&.&.&.&.&.&.&.&.&.&.&.&.&.&.&.&.&.&.&.&.&.&.&.&.&.&.&.-.-.-.-.-.-.-.-.-.-.-.-.&.&.&.&.",
"&.&.&.&.&.&.&.&.&.&.&.&.&.i , d ! R  .E b 0 &.&.&.&.&.&.&.&.&.&.&.&.&.&.&.&.&.&.&.&.&.&.0 0 b E +.R ^ d , -.-.-.-.-.-.-.&.&.&.&.",
"&.&.&.&.&.&.&.&.&.&.&.&.&.Z u 3 + o < 4 z V &.&.&.&.&.&.&.&.&.&.&.&.&.&.&.&.&.&.&.&.&.&.V V z $ o + z 3 u -.-.-.-.-.-.-.&.&.&.&.",
"&.&.&.&.&.&.&.&.&.&.&.&.&.&.) P > X d U Q &.&.&.&.&.&.&.&.&.&.&.&.] O.&.&.&.&.&.&.&.&.&.&.&.Q 8 X > ^ P ] -.-.-.-.-.-.-.&.&.&.&.",
"&.&.&.&.&.&.&.&.&.&.&.&.-.-.-.-.-.-.-.-.-.-.-.-.&.&.&.&.&.&.&.&.o.o.o.o.o.o.o.o.o.o.o.o.o.o.o.o.&.&.&.&.&.&.&.&.&.&.&.&.&.&.&.&.",
"&.&.&.&.&.&.&.&.&.&.&.&.-.-.-.-.-.-.-.-.-.-.-.-.&.&.&.&.&.&.&.&.o.o.o.o.o.o.o.o.o.o.o.o.o.o.o.o.&.&.&.&.&.&.&.&.&.&.&.&.&.&.&.&.",
"&.&.&.&.&.&.&.&.&.&.&.&.-.-.-.-.-.-.-.-.-.-.-.-.&.&.) '  .&.C N Y o.X.] o.o.o.o.o.o.o.o.o.o.o.o.&.&.&.&.&.&.&.&.&.&.&.&.&.&.&.&.",
"&.&.&.&.&.&.&.&.&.&.&.&.+.+.+.*.-.-.-.-.-.-.-.-.&.&.B 1 , g o . % ) R J H R o.o.o.o.o.o.o.o.o.o.&.&.&.&.&.&.&.&.&.&.&.&.&.&.&.&.",
"&.&.&.&.&.&.&.&.+.a , y @ O O -.#.M 0 e &.&.&.&.&.S w q q * # + + y 4 c z V o.o.o.o.o.o.&.&.&.&.&.&.&.] +.-.-.-.-.-.-.-.-.-.-.-.",
"&.&.&.&.&.&.&. .e < 5 6 ; + + P r n z < &.&.&.&.&.U m B h 6 %   < % w r a G o.o.o.o.o.o.&.&.e 0 l O.L O O +.y , a +.=.-.-.-.-.-.",
"&.&.&.&.&.&.&.&.F M s 9 k O + @ : q B @.&.&.&.&.&.&.&.O.O.A &.&.&.) &.$.] ] o.o.o.o.o.o.&.&.< z n r @ + + @ 6 5 < e @.-.-.-.-.-.",
"&.&.&.&.&.&.&.&.} ` { +.-.-.-.T +.@.%.-.&.&.&.&.&.&.&.&.&.&.&.&.&.&.&.&.o.o.o.o.o.o.o.o.&.&. .B q : T + O ; 9 s M F -.-.-.-.-.-.",
"&.&.&.&.&.&.&.&.&.&.&.&.&.&.&.&.&.&.&.&.&.&.&.&.&.&.&.&.&.&.&.&.&.&.&.&.&.&.&.&.&.&.&.&.&.&.&.O. . .&.&.&.&.&.] ` } -.-.-.-.-.-.",
"&.&.&.&.&.&.&.&.&.&.&.&.&.&.&.&.&.&.&.&.&.&.&.&.&.&.&.&.&.&.&.&.&.&.&.&.&.&.&.&.&.&.&.&.&.&.&.&.&.&.&.&.&.&.&.&.-.-.-.-.-.-.-.-.",
"&.&.&.&.&.&.&.&.&.&.&.&.&.&.&.&.&.&.&.&.&.&.&.&.&.&.&.&.&.&.&.&.&.&.&.&.] ]  .&.&.&.&.&.&.&.&.&.&.&.&.&.&.&.&.&.-.-.-.-.-.-.-.-.",
"&.&.&.&.&.&.&.&.&.&.&.&.&.&.&.&.&.&.&.&.&.&.&.&.&.&.&.&.&.&.&.&.[ K G L + + @ y V &.&.&.&.&.&.&.&.&.&.&.&.&.&.&.-.-.-.-.-.-.-.-.",
"&.&.&.&.&.&.&.&.&.&.&.&.&.&.&.&.&.&.&.&.&.&.&.&.&.&.&.&.&.&.&.&.B a s > + + # 3 5 ! &.&.-.-.-.-.-.-.-.-.&.&.&.&.&.&.&.&.&.&.&.&.",
"&.&.&.&.&.&.&.&.&.&.&.&.&.&.&.&.&.&.&.&.V y  .] ] &.&.&.&.&.&.&.I B B y + + > 7 B O.&.&.-.-.-.-.-.-.-.-.&.&.&.&.&.&.&.&.&.&.&.&.",
"&.&.&.&.&.&.&.&.&.&.&.&.&.&.&.&.&.&.&.! 5 6 @ O O L G K [ &.&.&.&.T ! &.) ) &. .O.&.&.&.-.-.-.-.-.-.-.-.&.&.&.&.&.&.&.&.&.&.&.&.",
"&.&.&.&.&.&.&.&.&.&.&.&.&.&.&.&.&.&.&.O.B 9 ; + + @ : q B &.&.&.&.&.&.&.&.&.&.&.&.&.&.&.-.-.-.-.-.-.-.-.0 b E  .R ! d , i &.&.&.",
"&.&.&.&.o.o.o.o.i , d R R  .E b 0 -.-.-.%.+.k O + T +.@.O.&.&.&.&.&.&.&.&.&.&.&.-.-.-.-.-.-.-.-.&.&.&.&.V z 4 < o + 3 u Z &.&.&.",
"&.&.&.&.o.o.o.o.C u 3 + o < 4 z V -.-.-.-.-.-.-.-.-.-.-.&.&.&.&.&.&.&.&.&.&.&.&.-.-.-.-.-.-.-.-.&.&.&.&.&.Q U d X > P ) &.&.&.&.",
"&.&.&.&.o.o.o.o.o.) L = X d U Q -.-.-.-.-.-.-.-.-.-.-.-.&.&.&.&.&.&.&.&.&.&.&.0 b W +.R ^ d , i &.&.&.&.&.&.&.&.&.&.&.&.&.&.&.&.",
"&.&.&.&.o.o.o.o.o.o.o.o.&.&.&.&.-.-.-.-.-.-.-.-.-.-.-.-.&.&.&.&.&.&.&.&.&.&.&.V z 4 2 o + 3 u Z &.&.&.&.&.&.&.&.&.&.&.&.&.&.&.&.",
"&.&.&.&.&.&.&.&.&.&.&.&.&.&.&.&.&.&.&.&.-.-.-.-.-.-.-.-.-.-.-.-.&.&.&.&.&.&.&.&.Q U d X > P ) &.&.&.&.&.&.&.&.&.&.&.&.&.&.&.&.&.",
"&.&.&.&.&.&.&.&.&.&.&.&.&.&.&.&.&.&.&.&.-.-.-.-.-.-.-.-.-.-.-.-.&.&.&.&.&.&.&.&.&.&.&.&.&.&.&.&.&.&.&.&.&.&.&.&.&.&.&.&.&.&.&.&.",
"&.&.&.&.^ I I ( &.&.&. .O.&.&.&.&.&.&.&.-.-.-.-.-.-.-.-.-.-.-.-.$.T V  .T + O f ] ^ R O.&.&.&.&.&.&.&.&.&.&.&.&.&.&.&.&.&.&.&.&.",
"&.&.&.&.] k s p X > D i D &.&.&.&.&.&.&.-.-.-.-.-.-.-.-.-.-.-.-.T @ - : @ + + ; 3 & f V &.&.&.&.&.&.&.&.&.&.&.&.&.&.&.&.&.&.&.&.",
"&.&.&.&.] v q 2 o + 3 u I &.&.&.&.&.&.&.&.&.&.&.-.-.-.-.-.-.-.-.' z n r L O O @ e j ( &.&.&.&.&.o.o.o.o.o.o.o.o.&.&.&.&.&.&.&.&.",
"&.&.&.&.&.&.&.@.R &.&.&.%.&.&.&.&.O.R ^ ] f O + T +.V T &.-.-.-.-.-.-.-.&.&.&.&.&.&.&.&.&.&.&.&.o.o.o.o.o.o.o.o.&.&.&.&.&.&.&.&.",
"&.&.&.&.&.&.&.&.&.&.&.&.&.&.&.&.&.V f & 3 ; + + @ : - @ R -.-.-.-.-.-.-.&.&.&.&.&.&.&.&.&.&.&.&.o.o.o.o.o.o.o.o.&.&.&.&.&.&.&.&.",
"&.&.&.&.&.&.&.&.&.&.&.&.&.&.&.&.&.&.( j e @ O O P r n z ' -.-.-.-.-.-.-.&.&.&.&.$.&.&. . .&.&.&.o.o.o.o.o.o.o.o.&.&.&.&.&.&.&.&.",
"&.&.&.&.&.&.&.&.-.-.-.-.-.-.-.-.&.&.&.&.&.&. . .&.&.$.&.&.&.&.&.&.&.&.&.&.&.&.&.&.&.&.&.o.o.o.o.o.o.o.o.o.o.o.o.o.o.o.o.&.&.&.&.",
"&.&.&.&.&.&.&.&.-.-.-.-.-.-.-.-.&.&.&.&.&.&.&.&.&.&.&.&.&.&.&.&.&.&.&.&.&.O. .&.&.&.( I P R o.o.o.X._ ~ _ _ _ o.o.) | o.&.&.&.&.",
"&.&.&.&.&.&.&.&.-.-.-.-.-.-.-.-.&.&.&.&.&.&.&.&.&.&.&.&.&.&.&.&.&.&.&.&.&.D i D > X p s k _ o.o.X.t 5 6 @ O O A 0 n x X.&.&.&.&.",
"&.&.&.&.&.&.&.&.-.-.-.-.-.-.-.-.&.&.&.&.&.&.&.&.&.&.&.&.&.&.&.&.&.&.&.&.&.I u 3 + o 2 q v _ o.o.X.R N 9 ; + + + : 3 = _ &.&.&.&.",
"&.&.&.&.&.&.&.&.&.&.&.&.&.&.&.&.&.&.&.&.&.&.0 b E < o + d , i &.o.o.o.o.&.%.&.&.&.R @.&.&.&.&.&.&.&.O. .f O + T I / ) &.&.&.&.&.",
"&.&.&.&.&.&.&.&.&.&.&.&.&.&.&.&.&.&.&.&.&.&.V z 4 d X > 3 u Z &.o.o.o.o.&.&.&.&.&.&.&.&.&.&.&.&.&.&.&.&.&.&.&.&.&.&.&.&.&.&.&.&.",
"&.&.&.&.&.&.&.&.&.&.&.&.&.&.&.&.&.&.&.&.&.&.&.Q U &.&.&.P ) &.&.o.o.o.o.&.&.&.&.&.&.&.&.&.&.&.&.&.&.&.&.&.&.&.&.&.&.&.&.&.&.&.&.",
"&.&.&.&.&.&.&.&.&.&.&.&.&.&.&.&.&.&.&.&.&.&.&.&.&.&.&.&.&.&.&.&.o.o.o.o.&.&.&.&.&.&.&.&.&.&.&.&.&.&.&.&.&.&.&.&.&.&.&.&.&.&.&.&.",
"&.&.&.&.&.&.&.&.-.-.-.-.-.-.-.-.-.-.-.-.&.&.&.&.&.&.&.&.o.o.o.o.o.o.o.o.o.o.o.o.&.&.&.&.-.-.-.-.-.-.-.-.-.-.-.-.&.&.&.&.&.&.&.&.",
"&.&.&.&.&.&.&.&.-.-.-.-.-.-.-.-.-.-.-.-.&.&.&.&.&.&.&.&.o.o.o.o.o.o.o.o.o.o.o.o.&.&.&.&.-.-.-.-.-.-.-.-.-.-.-.-.&.&.&.&.&.&.&.&.",
"&.&.&.&.&.&.&.&.-.-.-.-.-.-.-.-.-.-.-.-.&.&.&.&.&.&.&.&.o.o.o.o.o.o.o.o.o.o.o.o.&.&.&.&.-.-.-.-.-.-.-.-.-.-.-.-.&.&.&.&.&.&.&.&.",
"&.&.&.&.&.&.&.&.-.-.-.-.-.-.-.-.-.-.-.-.&.&.&.&.&.&.&.&.o.o.o.o.o.o.o.o.o.o.o.o.&.&.&.&.-.-.-.-.-.-.-.-.-.-.-.-.&.&.&.&.&.&.&.&.",
"o.o.o.o.&.&.&.&.&.&.&.&.-.-.-.-.-.-.-.-.-.-.-.-.&.&.&.&.&.&.&.&.&.&.&.&.&.&.&.&.-.-.-.-.-.-.-.-.-.-.-.-.&.&.&.&.&.&.&.&.o.o.o.o.",
"o.o.o.o.&.&.&.&.&.&.&.&.-.-.-.-.-.-.-.-.-.-.-.-.&.&.&.&.&.&.&.&.&.&.&.&.&.&.&.&.-.-.-.-.-.-.-.-.-.-.-.-.&.&.&.&.&.&.&.&.o.o.o.o.",
"o.o.o.o.&.&.&.&.&.&.&.&.-.-.-.-.-.-.-.-.-.-.-.-.&.&.&.&.&.&.&.&.&.&.&.&.&.&.&.&.-.-.-.-.-.-.-.-.-.-.-.-.&.&.&.&.&.&.&.&.o.o.o.o.",
"o.o.o.o.&.&.&.&.&.&.&.&.-.-.-.-.-.-.-.-.-.-.-.-.&.&.&.&.&.&.&.&.&.&.&.&.&.&.&.&.-.-.-.-.-.-.-.-.-.-.-.-.&.&.&.&.&.&.&.&.o.o.o.o.",
"o.o.o.o.o.o.o.o.&.&.&.&.&.&.&.&.&.&.&.&.&.&.&.&.&.&.&.&.&.&.&.&.&.&.&.&.&.&.&.&.&.&.&.&.&.&.&.&.&.&.&.&.&.&.&.&.o.o.o.o.o.o.o.o.",
"o.o.o.o.o.o.o.o.&.&.&.&.&.&.&.&.&.&.&.&.&.&.&.&.&.&.&.&.&.&.&.&.&.&.&.&.&.&.&.&.&.&.&.&.&.&.&.&.&.&.&.&.&.&.&.&.o.o.o.o.o.o.o.o.",
"o.o.o.o.o.o.o.o.&.&.&.&.&.&.&.&.&.&.&.&.&.&.&.&.&.&.&.&.&.&.&.&.&.&.&.&.&.&.&.&.&.&.&.&.&.&.&.&.&.&.&.&.&.&.&.&.o.o.o.o.o.o.o.o.",
"o.o.o.o.o.o.o.o.&.&.&.&.&.&.&.&.&.&.&.&.&.&.&.&.&.&.&.&.&.&.&.&.&.&.&.&.&.&.&.&.&.&.&.&.&.&.&.&.&.&.&.&.&.&.&.&.o.o.o.o.o.o.o.o."
};
