/* XPM */
static const char *enemies[] = {
/* columns rows colors chars-per-pixel */
"64 64 166 2 ",
"   c #14151D",
".  c #17181F",
"X  c #1A1A1F",
"o  c #221D1F",
"O  c #1A1A20",
"+  c #1C1D20",
"@  c #221E21",
"#  c #251E20",
"$  c #232323",
"%  c #262322",
"&  c #232424",
"*  c #242425",
"=  c #282020",
"-  c #2D2522",
";  c #2B2424",
":  c #2A2B27",
">  c #392D26",
",  c #3B2D28",
"<  c #34312B",
"1  c #3A332B",
"2  c #3D3028",
"3  c #3E3732",
"4  c #3B3C33",
"5  c #3A3A39",
"6  c #40352B",
"7  c #433E2F",
"8  c #473F2F",
"9  c #543B2A",
"0  c #513E2D",
"q  c #443F31",
"w  c #53402E",
"e  c #55422F",
"r  c #4D4333",
"t  c #494536",
"y  c #4E4737",
"u  c #474138",
"i  c #46453A",
"p  c #45463E",
"a  c #4B4738",
"s  c #4C4938",
"d  c #564330",
"f  c #544836",
"g  c #584C37",
"h  c #5D4F37",
"j  c #524A3B",
"k  c #544A39",
"l  c #524D3B",
"z  c #564F39",
"x  c #52493E",
"c  c #594D3A",
"v  c #584B3F",
"b  c #5B5038",
"n  c #5E5038",
"m  c #5D503D",
"M  c #634B33",
"N  c #614E37",
"B  c #684B30",
"V  c #684D31",
"C  c #6A4F35",
"Z  c #624F38",
"A  c #645137",
"S  c #6D5035",
"D  c #63533B",
"F  c #655338",
"G  c #6A5439",
"H  c #6E563B",
"J  c #715133",
"K  c #755335",
"L  c #745535",
"P  c #785335",
"I  c #7A5737",
"U  c #7F5836",
"Y  c #705539",
"T  c #77593B",
"R  c #725C3E",
"E  c #785A3B",
"W  c #79603E",
"Q  c #484B47",
"!  c #4D4B44",
"~  c #4D4E47",
"^  c #504F48",
"/  c #4D524D",
"(  c #585043",
")  c #5D5541",
"_  c #4F5650",
"`  c #775F40",
"'  c #7F6340",
"]  c #7C6440",
"[  c #815836",
"{  c #805938",
"}  c #805F3B",
"|  c #805F3D",
" . c #89603B",
".. c #8E613A",
"X. c #8B613C",
"o. c #8B653C",
"O. c #8F643D",
"+. c #91623A",
"@. c #95673E",
"#. c #96693F",
"$. c #9A6B3E",
"%. c #9D6B3E",
"&. c #B0723F",
"*. c #8D6B43",
"=. c #936E43",
"-. c #9B6D41",
";. c #9D7243",
":. c #9F7244",
">. c #99734A",
",. c #997750",
"<. c #A16F40",
"1. c #A27242",
"2. c #A57342",
"3. c #A67644",
"4. c #A97645",
"5. c #AE7744",
"6. c #AF7A46",
"7. c #A2794B",
"8. c #AD7A4A",
"9. c #AF7D48",
"0. c #AE7D4C",
"q. c #B37441",
"w. c #B57A43",
"e. c #B47C45",
"r. c #BC7A43",
"t. c #B87B44",
"y. c #B97E46",
"u. c #BE7F46",
"i. c #B27F48",
"p. c #B3824A",
"a. c #BF8148",
"s. c #BD8449",
"d. c #C18247",
"f. c #C58247",
"g. c #CC8647",
"h. c #C08248",
"j. c #C28448",
"k. c #C68448",
"l. c #CE8B4B",
"z. c #CD8C4C",
"x. c #D18949",
"c. c #D28C4B",
"v. c #D18E4C",
"b. c #D78F4C",
"n. c #DB8E4A",
"m. c #DC8E4B",
"M. c #D7904C",
"N. c #D9934E",
"B. c #DF934D",
"V. c #DF954F",
"C. c #D49150",
"Z. c #E1914C",
"A. c #E3964E",
"S. c #E7954D",
"D. c #E8954D",
"F. c #E6984F",
"G. c #E29750",
"H. c #E29A51",
"J. c #E49B52",
"K. c #E59C52",
"L. c #EA9B50",
"P. c #E99E52",
"I. c #EE9D51",
"U. c #EEA153",
"Y. c #EFA254",
"T. c #F0A254",
/* pixels */
"I.I.I.I.I.I.I.I.I.I.I.I.I.I.I.I.I.I.I.I.I.I.I.I.I.I.I.I.I.I.I.I.I.I.I.I.I.I.I.I.I.I.I.I.I.I.I.I.I.I.I.I.I.I.I.I.I.I.I.I.I.I.I.I.",
"I.I.I.I.I.I.I.I.I.I.I.I.I.I.I.I.I.I.I.I.I.I.I.I.I.I.I.I.I.I.I.I.I.I.I.I.I.I.I.I.I.I.I.I.I.I.I.I.I.I.I.I.I.I.I.I.I.I.I.I.I.I.I.I.",
"I.I.I.I.I.I.I.I.I.I.I.I.I.I.I.I.I.I.I.I.I.I.I.I.I.I.I.I.I.I.I.I.I.I.I.I.I.I.I.I.I.I.I.I.I.I.I.I.I.I.I.I.I.I.I.I.I.I.I.I.I.I.I.I.",
"I.I.I.I.I.I.I.I.I.I.I.I.I.I.I.I.I.I.I.I.I.I.I.I.I.I.I.I.I.I.I.I.I.I.I.I.I.I.I.I.I.I.I.I.I.I.I.I.I.I.I.I.I.I.I.I.I.I.I.I.I.I.I.I.",
"D.D.D.D.I.I.I.I.I.I.I.I.D.D.D.D.D.D.D.D.I.I.I.I.I.I.I.I.I.I.I.I.I.I.I.I.I.I.I.I.I.I.I.I.I.I.I.I.I.I.I.I.I.I.I.I.I.I.I.I.I.I.I.I.",
"D.D.D.D.I.I.I.I.I.I.I.I.D.D.D.D.D.D.D.D.I.I.I.I.I.I.I.I.I.I.I.I.I.I.I.I.I.I.I.I.I.I.I.I.I.I.I.I.I.I.I.I.I.I.I.I.I.I.I.I.I.I.I.I.",
"D.D.D.D.I.I.I.I.I.I.I.I.D.D.D.D.D.D.D.D.I.I.I.I.I.I.I.I.I.I.I.I.I.I.I.I.I.I.I.I.I.I.I.I.I.I.I.I.I.I.I.I.I.I.I.I.I.I.I.I.I.I.I.I.",
"D.D.D.D.I.I.I.I.I.I.I.I.D.D.D.D.D.D.D.D.I.I.I.I.I.I.I.I.I.I.I.I.I.I.I.I.I.I.I.I.I.I.I.I.I.I.I.I.I.I.I.I.I.I.I.I.I.I.I.I.I.I.I.I.",
"D.D.D.D.D.D.D.D.I.I.I.I.I.I.I.I.D.D.D.D.D.D.D.D.I.I.I.I.T.T.T.T.T.T.T.T.I.I.I.I.I.I.I.I.T.T.T.T.T.T.T.T.T.T.T.T.I.I.I.I.I.I.I.I.",
"D.D.D.D.D.D.D.D.I.I.I.I.I.I.I.I.D.D.D.D.D.D.D.D.I.I.I.I.T.T.T.T.T.T.T.T.I.I.I.I.I.I.I.I.T.T.T.T.T.T.T.T.T.T.T.T.I.I.I.I.I.I.I.I.",
"D.D.D.D.D.D.D.D.I.I.I.I.I.I.I.I.D.D.D.D.D.D.D.D.I.I.I.I.T.T.T.T.T.T.T.T.I.I.I.I.I.I.I.I.T.T.T.T.T.T.T.T.T.T.T.T.I.I.I.I.I.I.I.I.",
"D.D.D.D.D.D.D.D.I.I.I.I.I.I.I.I.D.D.D.D.D.D.D.D.I.I.I.I.T.T.T.T.T.T.T.T.I.I.I.I.I.I.I.I.T.T.T.T.T.T.T.T.T.T.T.T.I.I.I.I.I.I.I.I.",
"I.I.I.I.I.I.I.I.I.I.I.I.I.I.I.I.I.I.I.I.I.I.I.I.I.I.I.I.I.I.I.I.I.I.I.I.I.I.7 L d.t.A.i.) g g I.T.T.T.T.T.T.T.T.T.T.T.T.I.I.I.I.",
"I.I.I.I.I.I.I.I.I.I.I.I.I.I.I.I.I.I.I.I.I.I.I.I.I.I.I.I.I.I.I.I.I.I.I.I.I.I.N t * O 0 p !  . .I.T.T.T.T.T.T.T.T.T.T.T.T.I.I.I.I.",
"I.I.I.I.I.I.I.I.I.I.I.I.I.I.I.I.I.I.I.I.I.I.I.I.I.I.I.I.I.I.I.I.I.I.I.I.I.I.b.2.6 X K 8.a.I.I.I.T.T.T.T.T.T.T.T.T.T.T.T.I.I.I.I.",
"I.I.I.I.I.I.I.I.I.I.I.I.I.I.I.I.I.I.I.I.I.I.I.I.I.I.I.I.I.I.I.I.I.I.I.I.I.I.I.I.I.I.I.I.I.I.I.I.T.T.T.T.T.T.T.T.T.T.T.T.I.I.I.I.",
"I.I.I.I.I.I.I.I.I.I.I.I.T.T.T.T.F 7 L j.y.H.p.) g I.I.I.I.I.I.I.D.D.D.D.D.D.D.D.D.D.D.D.D.D.D.D.I.I.I.I.I.I.I.I.I.I.I.I.I.I.I.I.",
"I.I.I.I.I.I.I.I.I.I.I.I.T.T.T.T.#.Z t * O w p !  .I.I.I.I.I.I.I.D.D.D.D.D.D.D.D.D.D.D.D.D.D.D.D.I.I.I.I.I.I.I.I.I.I.I.I.I.I.I.I.",
"I.I.I.I.I.I.I.I.I.I.I.I.T.T.T.T.T.N.3.6 X K 0.j.I.I.I.I.I.I.I.I.D.D.D.D.D.D.D.D.D.D.D.D.D.D.D.D.I.I.I.I.I.I.I.I.I.I.I.I.I.I.I.I.",
"I.I.I.I.I.I.I.I.I.I.I.I.T.T.T.T.T.T.T.T.T.T.T.T.I.I.I.I.I.I.I.I.D.D.D.D.D.D.D.D.D.D.D.D.D.D.D.D.I.I.I.I.I.I.I.I.I.I.I.I.I.I.I.I.",
"I.I.I.I.I.I.I.I.T.T.T.T.T.T.T.T.T.T.T.T.I.I.I.I.I.v.M.A.I.I.B.F.I.P.J.I.D.D.D.D.D.D.D.D.I.I.I.I.I.I.I.I.T.T.T.T.T.T.T.T.T.T.T.T.",
"I.I.I.I.I.I.I.I.T.T.T.T.T.T.T.T.T.T.T.T.I.I.I.I.I.} q 8 U +.[ w.N.s.7.>.y.D.D.D.D.D.D.D.I.I.I.I.I.I.I.I.T.T.T.T.T.T.T.T.T.T.T.T.",
"I.I.I.I.I.I.V.n 8 V H.H.H.U.K.] z n T.T.I.I.I.I.*.c k l < + . 2 C i / ~ X.D.D.D.h z W B.I.B.B.A.B 8 n V.Y.T.T.T.T.T.T.T.T.T.T.T.",
"I.I.I.I.I.A.n 0 a s - @ # 1.b _ Q 0 T.T.I.I.I.I.9.` | Y y : & % > v m D :.D.D.D.0 Q _ g <.# @ - s a 0 n J.T.T.T.T.T.T.T.T.T.T.T.",
"I.I.I.I.I.I.=.' G f 4 $ * = 5 x } A.I.I.I.I.I.I.I.I.F.F.$.>   9 c.I.L.J.G.I.I.I.A.} x 5 = * $ 4 f G ' =.I.I.I.I.T.T.T.T.T.T.T.T.",
"I.I.I.I.I.I.B.z.N.A.I @ % w.A.A.F.I.I.I.I.I.I.I.I.I.I.I.I.I.I.I.I.I.I.I.I.I.I.I.I.F.A.A.w.% @ I A.N.z.B.I.I.I.I.T.T.T.T.T.T.T.T.",
"I.I.I.I.I.I.I.I.I.I.I.I.I.I.I.I.I.I.I.I.I.I.I.I.I.I.I.I.I.I.I.I.I.I.I.I.I.I.I.I.I.I.I.I.I.I.I.I.I.I.I.I.I.I.I.I.T.T.T.T.T.T.T.T.",
"I.I.I.I.I.I.I.I.I.I.I.I.I.I.I.I.I.I.I.I.I.I.I.I.I.I.I.I.I.I.I.I.I.I.I.I.I.I.I.I.I.I.I.I.I.I.I.I.I.I.I.I.I.I.I.I.T.T.T.T.T.T.T.T.",
"I.I.I.I.I.I.I.I.I.I.I.I.I.I.I.I.I.I.I.I.I.I.I.I.I.I.I.I.I.I.I.I.I.I.I.I.I.I.I.I.I.I.I.I.T.T.T.T.T.T.T.T.I.I.I.I.I.I.I.I.I.I.I.I.",
"I.I.I.I.I.I.I.I.I.I.I.I.I.I.I.I.I.o.B A.B.B.I.I.I.I.I.I.I.I.I.I.I.I.I.I.I.I.I.I.I.I.I.I.T.T.T.T.T.T.T.T.I.I.I.I.I.I.I.I.I.I.I.I.",
"I.I.I.I.I.I.I.I.I.I.I.I.I.I.I.I.d.a s - @ # <.;.,.C.I.I.I.I.I.I.I.I.I.I.I.I.I.I.I.I.I.I.T.T.T.T.T.T.T.T.I.I.I.I.I.I.I.I.I.I.I.I.",
"I.I.I.I.I.I.I.I.I.I.I.I.I.I.I.I.F.} f 4 $ * = 5 x } I.I.I.I.I.I.I.I.B.B.A.B o.I.I.I.I.I.T.T.T.T.T.g ) p.A.t.d.L 7 F I.I.I.I.I.I.",
"I.I.I.I.D.D.D.D.D.D.D.D.I.I.I.I.T.P.H.E @ % e.H.J.P.T.T.I.I.C.,.;.<.# @ - s a d.T.T.T.T.T.T.T.T.I. .! p 0 O * t N @.I.I.I.I.I.I.",
"I.I.I.I.D.D.D.D.D.D.D.D.I.I.I.I.T.T.T.T.T.T.T.T.T.T.T.T.I.I.} x 5 = * $ 4 f } F.T.T.T.T.T.T.T.T.I.I.a.8.K X 6 2.b.I.I.I.I.I.I.I.",
"I.I.I.I.D.D.D.D.D.D.D.D.I.I.I.I.T.T.T.T.T.T.T.T.T.T.T.T.I.I.F.A.A.w.% @ I A.F.I.T.T.T.T.T.T.T.T.I.I.I.I.I.I.I.I.I.I.I.I.I.I.I.I.",
"I.I.I.I.D.D.A 7 J r.q.n.i.) g I.T.T.T.T.T.T.T.T.T.T.T.T.I.I.I.I.I.I.I.I.I.I.I.I.T.T.T.g ) p.H.y.d.L 7 F I.I.I.I.I.I.I.I.I.I.I.I.",
"I.I.I.I.I.I.@.N t * O 0 p !  .I.I.I.I.I.T.T.T.T.T.T.T.T.T.T.T.T.I.I.I.I.I.I.I.I.I.I.I. .! p 0 O * t N @.I.I.I.I.I.I.I.I.I.I.I.I.",
"I.I.I.I.I.I.I.b.2.6 X K 8.a.I.I.I.I.I.I.T.T.T.T.T.T.T.T.T.T.T.T.I.I.I.I.I.I.I.I.I.I.I.I.a.8.K X 6 2.b.I.I.I.I.I.I.I.I.I.I.I.I.I.",
"I.I.I.I.I.I.I.I.I.I.I.I.I.I.I.I.F.t.k.B.E @ % e.H.O.e.I.T.T.T.T.I.I.I.I.I.I.I.I.I.I.I.I.I.I.I.I.I.I.I.I.I.I.I.I.I.I.I.I.I.I.I.I.",
"I.I.I.I.I.I.I.I.I.I.I.I.I.I.I.I...I , r 4 $ * = 5 3 ; y.T.T.T.T.I.I.I.I.I.I.I.I.I.I.I.I.I.I.I.I.I.I.I.I.I.I.I.I.I.I.I.I.I.I.I.I.",
"I.I.I.I.I.I.I.I.I.I.I.I.I.I.I.I.I.l.R n - @ # <.b _ ~ M.T.T.I.e.O.H.e.% @ I B.k.t.F.I.I.I.I.I.I.D.D.D.D.D.D.D.D.I.I.I.I.I.I.I.I.",
"I.I.I.I.I.I.I.I.I.I.I.I.I.I.I.I.I.I.I.I.I.A.A.I.Y.I.Y.T.T.T.y.; 3 5 = * $ 4 r , I ..I.I.I.I.I.I.m.g.m.n.m.D.D.x.J.I.I.I.I.I.I.I.",
"I.I.I.I.I.j.4.4.l.I.I.I.A.F.I.I.I.I.I.I.I.I.I.I.T.T.T.T.T.T.M.~ _ b 1.# @ - n R l.I.I.I.I.I.I.M a s - @ # %.g _ ^ L.I.I.I.I.I.I.",
"I.I.I.I.I.V.E H S X 6 -.F -.I.I.I.I.I.I.I.I.I.I.T.T.T.T.T.T.T.Y.I.Y.T.H.A.I.I.I.I.I.I.I.I.I.L.d.{ f 4 $ * % 5 u 1 A.I.I.I.I.I.I.",
"I.I.I.I.I.B.( j d O * t N 6.T.T.I.I.I.I.I.I.I.I.I.I.I.I.I.I.I.I.I.I.I.I.I.I.I.I.I.I.I.I.D.D.D.D.Z.m.P o # &.2.f.x.S.D.D.I.I.I.I.",
"I.I.I.I.I.I.I.I.P.h.U.Y.Y.U.T.T.I.I.I.I.I.I.I.I.I.I.I.I.I.I.I.I.I.I.I.I.I.I.I.I.I.I.I.I.D.D.D.D.D.D.D.D.D.D.D.D.D.D.D.D.I.I.I.I.",
"I.I.I.I.I.I.I.I.T.T.T.T.T.T.T.T.I.I.I.I.I.I.I.I.I.I.I.I.I.I.I.I.I.I.I.I.I.I.F.A.I.I.I.l.2.2.u.D.D.D.D.D.D.D.D.D.D.D.D.D.I.I.I.I.",
"I.I.I.I.I.I.I.I.T.T.T.T.T.T.T.T.I.I.I.I.I.I.I.I.I.I.I.I.I.I.I.I.I.I.I.I.I.I.-.F -.6 X S H T n.D.D.D.D.D.D.D.D.D.D.D.D.D.I.I.I.I.",
"I.I.I.I.I.I.I.I.I.I.I.I.I.I.I.I.I.I.I.I.I.I.I.g ) i.A.t.d.L 7 F D.D.D.D.I.I.5.N t * O e j ( B.I.I.I.I.I.I.I.I.I.I.I.I.I.I.I.I.I.",
"I.I.I.I.I.I.I.I.I.I.I.I.I.I.I.I.I.I.I.I.I.I.I. .! p 0 O * t N @.D.D.D.D.I.I.P.I.I.I.u.J.I.I.I.I.I.I.I.I.I.I.I.I.I.I.I.I.I.I.I.I.",
"I.I.I.I.I.I.I.I.I.I.I.I.I.I.I.I.I.I.I.I.I.I.I.I.a.8.K X 6 2.b.I.D.D.D.D.I.I.I.I.I.I.I.I.I.I.I.I.I.I.I.I.I.I.I.I.I.I.I.I.I.I.I.I.",
"I.I.I.I.I.I.I.I.I.I.I.I.I.I.I.I.I.I.I.I.I.I.I.I.I.I.I.I.I.I.I.I.D.D.D.D.I.I.I.I.I.I.I.I.I.I.I.I.I.I.I.I.I.I.I.I.I.I.I.I.I.I.I.I.",
"I.I.I.I.I.I.I.I.T.T.T.T.T.T.T.T.T.T.T.T.I.I.I.I.I.I.I.I.D.D.D.D.D.D.D.D.D.D.D.D.I.I.I.I.T.T.T.T.T.T.T.T.T.T.T.T.I.I.I.I.I.I.I.I.",
"I.I.I.I.I.I.I.I.T.T.T.T.T.T.T.T.T.T.T.T.I.I.I.I.I.I.I.I.D.D.D.D.D.D.D.D.D.D.D.D.I.I.I.I.T.T.T.T.T.T.T.T.T.T.T.T.I.I.I.I.I.I.I.I.",
"I.I.I.I.I.I.I.I.T.T.T.T.T.T.T.T.T.T.T.T.I.I.I.I.I.I.I.I.D.D.D.D.D.D.D.D.D.D.D.D.I.I.I.I.T.T.T.T.T.T.T.T.T.T.T.T.I.I.I.I.I.I.I.I.",
"I.I.I.I.I.I.I.I.T.T.T.T.T.T.T.T.T.T.T.T.I.I.I.I.I.I.I.I.D.D.D.D.D.D.D.D.D.D.D.D.I.I.I.I.T.T.T.T.T.T.T.T.T.T.T.T.I.I.I.I.I.I.I.I.",
"D.D.D.D.I.I.I.I.I.I.I.I.T.T.T.T.T.T.T.T.T.T.T.T.I.I.I.I.I.I.I.I.I.I.I.I.I.I.I.I.T.T.T.T.T.T.T.T.T.T.T.T.I.I.I.I.I.I.I.I.D.D.D.D.",
"D.D.D.D.I.I.I.I.I.I.I.I.T.T.T.T.T.T.T.T.T.T.T.T.I.I.I.I.I.I.I.I.I.I.I.I.I.I.I.I.T.T.T.T.T.T.T.T.T.T.T.T.I.I.I.I.I.I.I.I.D.D.D.D.",
"D.D.D.D.I.I.I.I.I.I.I.I.T.T.T.T.T.T.T.T.T.T.T.T.I.I.I.I.I.I.I.I.I.I.I.I.I.I.I.I.T.T.T.T.T.T.T.T.T.T.T.T.I.I.I.I.I.I.I.I.D.D.D.D.",
"D.D.D.D.I.I.I.I.I.I.I.I.T.T.T.T.T.T.T.T.T.T.T.T.I.I.I.I.I.I.I.I.I.I.I.I.I.I.I.I.T.T.T.T.T.T.T.T.T.T.T.T.I.I.I.I.I.I.I.I.D.D.D.D.",
"D.D.D.D.D.D.D.D.I.I.I.I.I.I.I.I.I.I.I.I.I.I.I.I.I.I.I.I.I.I.I.I.I.I.I.I.I.I.I.I.I.I.I.I.I.I.I.I.I.I.I.I.I.I.I.I.D.D.D.D.D.D.D.D.",
"D.D.D.D.D.D.D.D.I.I.I.I.I.I.I.I.I.I.I.I.I.I.I.I.I.I.I.I.I.I.I.I.I.I.I.I.I.I.I.I.I.I.I.I.I.I.I.I.I.I.I.I.I.I.I.I.D.D.D.D.D.D.D.D.",
"D.D.D.D.D.D.D.D.I.I.I.I.I.I.I.I.I.I.I.I.I.I.I.I.I.I.I.I.I.I.I.I.I.I.I.I.I.I.I.I.I.I.I.I.I.I.I.I.I.I.I.I.I.I.I.I.D.D.D.D.D.D.D.D.",
"D.D.D.D.D.D.D.D.I.I.I.I.I.I.I.I.I.I.I.I.I.I.I.I.I.I.I.I.I.I.I.I.I.I.I.I.I.I.I.I.I.I.I.I.I.I.I.I.I.I.I.I.I.I.I.I.D.D.D.D.D.D.D.D."
};
