/* XPM */
static const char *enemies_3[] = {
/* columns rows colors chars-per-pixel */
"64 64 107 2 ",
"   c #14151D",
".  c #17181F",
"X  c #1A1A1F",
"o  c #221D1F",
"O  c #1A1A20",
"+  c #231E21",
"@  c #242324",
"#  c #2B2322",
"$  c #2A2B27",
"%  c #2C2B29",
"&  c #3A2D27",
"*  c #3A2D28",
"=  c #34312B",
"-  c #3D322A",
";  c #3E3732",
":  c #3B3C33",
">  c #3A3A39",
",  c #40342B",
"<  c #4A372B",
"1  c #443E2E",
"2  c #523E2D",
"3  c #443F31",
"4  c #55412F",
"5  c #4A4536",
"6  c #45453D",
"7  c #4B4738",
"8  c #4C4938",
"9  c #584231",
"0  c #534836",
"q  c #594C37",
"w  c #534B3C",
"e  c #594D3A",
"r  c #5E5037",
"t  c #5C5139",
"y  c #614D36",
"u  c #694D31",
"i  c #624F38",
"p  c #724D32",
"a  c #6D5035",
"s  c #645238",
"d  c #6C553A",
"f  c #745435",
"g  c #795636",
"h  c #7F5836",
"j  c #705539",
"k  c #725C3E",
"l  c #795A3A",
"z  c #7B623F",
"x  c #4C4C45",
"c  c #504F48",
"v  c #4D524D",
"b  c #5C5442",
"n  c #4F5650",
"m  c #775F40",
"M  c #7F6441",
"N  c #815836",
"B  c #825D3A",
"V  c #8B623C",
"C  c #93653C",
"Z  c #96693F",
"A  c #9C6B3E",
"S  c #B0723F",
"D  c #8C6A44",
"F  c #936E43",
"G  c #9A6E42",
"H  c #937044",
"J  c #9F7444",
"K  c #967048",
"L  c #9F7549",
"P  c #9A7952",
"I  c #A16F40",
"U  c #A57343",
"Y  c #AB7645",
"T  c #AE7C4A",
"R  c #B57A43",
"E  c #BA7D45",
"W  c #B27F48",
"Q  c #B3824A",
"!  c #BF8148",
"~  c #C28146",
"^  c #CC8647",
"/  c #C28549",
"(  c #CA8749",
")  c #CC8A4B",
"_  c #D48C4B",
"`  c #DB8E4A",
"'  c #CF904E",
"]  c #D6914D",
"[  c #DC934E",
"{  c #D59452",
"}  c #DE9750",
"|  c #DD9851",
" . c #E0904B",
".. c #E3964E",
"X. c #E5944D",
"o. c #E8954D",
"O. c #E7994F",
"+. c #E29750",
"@. c #E29A51",
"#. c #E79950",
"$. c #E59C52",
"%. c #EA9B50",
"&. c #E89D52",
"*. c #EE9D51",
"=. c #EEA153",
"-. c #EFA254",
";. c #F0A254",
/* pixels */
"*.*.*.*.*.*.*.*.*.*.*.*.*.*.*.*.*.*.*.*.*.*.*.*.*.*.*.*.*.*.*.*.*.*.*.*.*.*.*.*.*.*.*.*.*.*.*.*.*.*.*.*.*.*.*.*.*.*.*.*.*.*.*.*.",
"*.*.*.*.*.*.*.*.*.*.*.*.*.*.*.*.*.*.*.*.*.*.*.*.*.*.*.*.*.*.*.*.*.*.*.*.*.*.*.*.*.*.*.*.*.*.*.*.*.*.*.*.*.*.*.*.*.*.*.*.*.*.*.*.",
"*.*.*.*.*.*.*.*.*.*.*.*.*.*.*.*.*.*.*.*.*.*.*.*.*.*.*.*.*.*.*.*.*.*.*.*.*.*.*.*.*.*.*.*.*.*.*.*.*.*.*.*.*.*.*.*.*.*.*.*.*.*.*.*.",
"*.*.*.*.*.*.*.*.*.*.*.*.*.*.*.*.*.*.*.*.*.*.*.*.*.*.*.*.*.*.*.*.*.*.*.*.*.*.*.*.*.*.*.*.*.*.*.*.*.*.*.*.*.*.*.*.*.*.*.*.*.*.*.*.",
"o.o.o.o.*.*.*.*.*.*.*.*.o.o.o.o.o.o.o.o.*.*.*.*.*.*.*.*.*.*.*.*.*.*.*.*.*.*.*.*.*.*.*.*.*.*.*.*.*.*.*.*.*.*.*.*.*.*.*.*.*.*.*.*.",
"o.o.o.o.*.*.*.*.*.*.*.*.o.o.o.o.o.o.o.o.*.*.*.*.*.*.*.*.*.*.*.*.*.*.*.*.*.*.*.*.*.*.*.*.*.*.*.*.*.*.*.*.*.*.*.*.*.*.*.*.*.*.*.*.",
"o.o.o.o.*.*.*.*.*.*.*.*.o.o.o.o.o.o.o.o.*.*.*.*.*.*.*.*.*.*.*.*.*.*.*.*.*.*.*.*.*.*.*.*.*.*.*.*.*.*.*.*.*.*.*.*.*.*.*.*.*.*.*.*.",
"o.o.o.o.*.*.*.*.*.*.*.*.o.o.o.o.o.o.o.o.*.*.*.*.*.*.*.*.*.*.*.*.*.*.*.*.*.*.*.*.*.*.*.*.*.*.*.*.*.*.*.*.*.*.*.*.*.*.*.*.*.*.*.*.",
"o.o.o.o.o.o.o.o.*.*.*.*.*.*.*.*.o.o.o.o.o.o.o.o.*.*.*.*.;.;.;.;.;.;.;.;.*.*.*.*.*.*.*.*.;.;.;.;.;.;.;.;.;.;.;.;.*.*.*.*.*.*.*.*.",
"o.o.o.o.o.o.o.o.*.*.*.*.*.*.*.*.o.o.o.o.o.o.o.o.*.*.*.*.;.;.;.;.;.;.;.;.*.*.*.*.*.*.*.*.;.;.;.;.;.;.;.;.;.;.;.;.*.*.*.*.*.*.*.*.",
"o.o.o.o.o.o.o.o.*.*.*.*.*.*.*.*.o.o.o.o.o.o.o.o.*.*.*.*.;.;.;.;.;.;.;.;.*.*.*.*.*.*.*.*.;.;.;.;.;.;.;.;.;.;.;.;.*.*.*.*.*.*.*.*.",
"o.o.o.o.o.o.o.o.*.*.*.*.*.*.*.*.o.o.o.o.o.o.o.o.*.*.*.*.;.;.;.;.;.;.;.;.*.*.*.*.*.*.*.*.;.q q b % O @ / f 1 ;.;.*.*.*.*.*.*.*.*.",
"*.*.*.*.*.*.*.*.*.*.*.*.*.*.*.*.*.*.*.*.*.*.*.*.*.*.*.*.*.*.*.*.*.*.*.*.*.*.*.*.*.*.*.*.*.V V x 9 X , x 5 i ;.;.;.;.;.;.*.*.*.*.",
"*.*.*.*.*.*.*.*.*.*.*.*.*.*.*.*.*.*.*.*.*.*.*.*.*.*.*.*.*.*.*.*.*.*.*.*.*.*.*.*.*.*.*.*.*.*.*.! ;.;.;./ U [ ;.;.;.;.;.;.*.*.*.*.",
"*.*.*.*.*.*.*.*.*.*.*.*.*.*.*.*.*.*.*.*.*.*.*.*.*.*.*.*.*.*.*.*.*.*.*.*.*.*.*.*.*.*.*.*.*.*.*.*.;.;.;.;.;.;.;.;.;.;.;.;.*.*.*.*.",
"*.*.*.*.*.*.*.*.*.*.*.*.*.*.*.*.*.*.*.*.*.*.*.*.*.*.*.*.*.*.*.*.*.*.*.*.*.*.*.*.*.*.*.*.*.*.*.*.;.;.;.;.;.;.;.;.;.;.;.;.*.*.*.*.",
"*.*.*.*.*.*.*.*.*.*.*.*.;.s 1 f / E @.Q b q ;.;.*.*.*.*.*.*.*.*.o.o.o.o.o.o.o.o.o.o.o.o.o.o.o.o.*.*.*.*.*.*.*.*.*.*.*.*.*.*.*.*.",
"*.*.*.*.*.*.*.*.*.*.*.*.;.Z i 5 @ O 4 6 x V ;.;.*.*.*.*.*.*.*.*.o.o.o.o.o.o.o.o.o.o.o.o.o.o.o.o.*.*.*.*.*.*.*.*.*.*.*.*.*.*.*.*.",
"*.*.*.*.*.*.*.*.*.*.*.*.;.;.[ U , X f T / ;.;.;.*.*.*.*.*.*.*.*.o.o.o.o.o.o.o.o.o.o.o.o.o.o.o.o.*.*.*.*.[ [ *.*.*.*.*.*.*.*.*.*.",
"*.*.*.*.*.*.*.*.*.*.*.*.;.;.;.;.;.;.;.;.;.;.;.;.*.*.*.*.*.*.*.*.X.`  .o.o.o.o.o.o.o.o.o.o.o.o.q e z O.I + + ..u 1 t [ *.*.*.*.*.",
"*.*.*.*.*.*.*.*.;.;.;.;.;.;.;.;.;.;.;.;.*.*.*.*.*.*.*.*._ ] ..*.C N R *.X.[ o.o.o.o.o.o.*.*.*.2 x n t # @ @ # 8 7 2 t #.;.;.;.;.",
"*.*.*.*.*.*.*.*.;.;.;.;.;.;.;.;.;.;.;.;.*.*.*.*.*.*.*.*.B 3 1 h O . - [ E L K E o.o.o.o.*.*.*...B w > R @ + : 0 d M H ;.;.;.;.;.",
"*.*.*.*.*.*.*.*.;.;.;.;.;.;.;.@.@.@.=.;.*.*.*.*.*.*.*.D e w w = $ @ @ u 6 v x V o.o.o.o.*.*.*.*.O.....*.;.;.;.;.} ' | ;.;.;.;.;.",
"*.*.*.*.*.*.*.*.;.;.;.@.s 1 u # + + ;.$.z e r *.*.*.*.T m B j 8 &   2 & w t s J o.o.o.o.*.*.*.*.*.*.*.*.;.;.;.;.;.;.;.;.;.;.;.;.",
"*.*.*.*.*...*.*.*.*.*.t 2 7 8 : @ @ I t n x 2 *.*.*.*.*.*.O.O.A *.*.*._ *.%.#.+.*.*.*.*.*.*.*.*.*.*.*.*.*.*.*.*.;.;.;.;.;.;.;.;.",
"*.*.*.*.*.*.*.*.*.*.*.F M d 0 g + @ # > w B ..*.*.*.*.*.*.*.*.*.*.*.*.*.*.*.*.*.*.*.*.*.*.*.*.*.*.*.*.*.*.*.*.*.;.;.;.;.;.;.;.;.",
"*.*.*.*.*.*.*.*.*.*.*.[ ) [ ..*.*.*.R ....O.*.*.*.*.*.*.*.*.*.*.*.*.*.*.*.*.*.*.*.*.*.*.*.*.*.*.*.*.*.*.*.*.*.*.;.;.;.;.;.;.;.;.",
"*.*.*.*.*.*.*.*.*.*.*.*.*.*.*.*.*.*.*.*.*.*.*.*.*.*.*.*.*.*.*.*.*.*.*.*.*.*.*.*.*.*.*.*.*.*.*.*.*.*.*.q b W ..R / f 1 s ;.;.;.;.",
"*.*.*.*.*.*.*.*.*.*.*.*.*.*.*.*.*.*.*.*.*.*.*.*.*.*.*.*.*.*.*.[ [ ..u V *.*.*.*.*.*.*.*.;.;.;.;.;.;.;.V x 6 2 O @ 5 y Z *.*.*.*.",
"*.*.*.*.*.*.*.*.*.*.*.*.*.*.*.*.*.*.*.*.*.*.*.*.*.*.*./ D 4 # + + # 8 0 E *.*.*.*.*.*.*.;.;.;.;.;.;.;.;.! T f X , U _ *.*.*.*.*.",
"*.*.*.*.*.*.*.*.*.*.*.*.*.*.*.*.*.*.*.*.*.*.*.*.*.*.*.< * , @ @ @ : q u B *.*.*.*.*.*.*.;.;.;.;.;.;.;.;.*.*.*.*.*.*.*.*.*.*.*.*.",
"*.*.*.*.s 1 f ~ R ..W b q *.*.*.*.*.*.*.*.*.*.*.*.*.*.E 2 C # + + g / V C *.*.*.q b W ..E / f 1 s ;.;.;.*.*.*.*.*.*.*.*.*.*.*.*.",
"*.*.*.*.C y 5 @ O 2 6 x V *.*.*.;.;.;.;.;.;.;.;.;.;.;.;.*.*.*.*.*.*.*.*.*.*.*.*.V x 6 4 O @ 5 i Z *.*.*.*.*.*.*.*.*.*.*.*.*.*.*.",
"*.*.*.*.o._ I - X p Y E *.*.*.*.;.V u @.@.@.=.;.;.;.;.;.*.*.*.*.*.*.*.*.*.*.*.*.;./ T f X , U [ *.*.*.*.*.*.*.*.*.*.*.*.*.*.*.*.",
"*.*.*.*.o.o.o.o.o.o.o.o.*.*.*.*./ 7 8 # + + U J P { ;.;.*.*.*.*.*.*.*.*.*.*.*.*.;.;.;.;.;.;.;.;.*.*.*.*.*.*.*.*.*.*.*.*.*.*.*.*.",
"*.*.*.*.o.o.o.o.o.o.o.o.*.*.*.*.&.B 0 : @ @ # > w B ;.;.*.*.*.*.*.*.*.*.*.*.*.*.;.;.;.;.;.;.;.;.*.*.*.*.*.*.*.*.*.*.*.*.*.*.*.*.",
"*.*.*.*.*.*.*.*.*.*.*.*.*.*.*.*.*.O...g + @ R @.#.&.;.;.;.;.;.;.*.*.*.*.*.*.*.*.*.*.*.*.*.*.*.*.*.*.*.*.*.*.*.*.*.*.*.*.*.*.*.*.",
"*.*.*.*.*.*.*.*.*.*.*.*.*.*.*.*.*.*.*.*.;.;.;.;.;.;.;.;.;.;.;.;.*.*.*.*.*.*.*.*.*.*.*.*.*.*.*.*.*.*.*.*.*.*.*.*.*.*.*.*.*.*.*.*.",
"*.*.*.*.*.*.*.*.*.*.*.*.*.*.*.*.*.*.*.*.;.;.;.;.;.;.;.;.;.;.;.;.*.*.*.*.*.*.*.*.*.*.*.*.*.*.*.*.*.*.*.*.*.*.*.*.*.*.*.*.*.*.*.*.",
"*.*.*.*.*.*.*.*.*.*.*.*.*.*.*.*.*.*.*.*.;.$.E ( } l + @ R @.V R %.*.*.*.*.*.*.*.*.*.*.*.*.*.*.*.*.*.*.*.*.*.*.*.*.*.*.*.*.*.*.*.",
"*.*.*.*.*.*.*.*.*.*.*.*.*.*.*.*.*.*.*.*.*.V g * 5 : @ @ # > ; # E ;.;.;.*.*.*.*.*.*.*.*.*.*.*.*.o.o.o.o.o.o.o.o.*.*.*.*.*.*.*.*.",
"*./ Y Y ) *.*.*...O.*.*.*.*.*.*.*.*.*.*.*.*.) k t # + + U t n x ] ;.;.;.*.*.*.*.*.*.*.*.*.*.*.*.o.o.o.o.o.o.o.o.*.*.*.*.*.*.*.*.",
"*.[ l d a X , G s G *.*.*.*.*.*.*.*.*.*.*.*.*.*.;.;.@.@.;.-.*.-.;.*.R V ..R @ + g [ / R O.*.*.*.o.o.o.o.o.o.o.o.*.*.*.*.*.*.*.*.",
"*.[ b w 4 O @ 5 y Y *.*.*.*.*.*.*.*.*.*.*.*.*.*.;.;.;.;.;.;.;.;.;.E # ; > # @ @ : 5 * g V *.*.*.o.o.o.o.X.` ^ ` ....*.*.] #.*.*.",
"*.*.*.*.#.E *.*.-.=.;.;.;.;.;.;.*.*.*.*.*.*.*.*.*.*.*.*.*.*.*.*.*._ x n t I + + # t k ) o.o.o.o.o.o.o.X.y 7 8 # + + A q n c %.*.",
"*.*.*.*.*.*.*.*.;.;.;.;.;.;.;.;.*.*.*.*.*.*.*.*.*.*.*.*.*.*.*.*.*.*.*.%.*.*.*.*.*.*.*.*.o.o.o.o.o.o.o.X.E N 0 : @ @ @ > 5 - ..*.",
"*.*.*.*.*.*.*.*.;.;.;.;.;.;.;.;.*.*.*.*.*.*.*.*.*.*.*.*.*.*.*.*.*.*.*.*.*.*.*.*.*.*.*.*.o.o.o.o.o.o.o.o.o. .` g o + S U ( _ *.*.",
"*.*.*.*.*.*.*.*.;.;.;.;.;.;.;.;.*.*.*.*.*.*.*.*.*.*.*.*.*.*.*.*.*.*.*.*.*.*.*.*.*.*.O._ ` o.o.( Y U E o.o.o.o.o.o.o.o.o.*.*.*.*.",
"*.*.*.*.*.*.*.*.*.*.*.*.*.*.*.*.*.*.*.*.*.*.*.*.*.*.*.*.*.*.*.*.o.o.o.o.*.*.*.*.*.*.G s G , X a d l [ *.*.*.*.*.*.*.*.*.*.*.*.*.",
"*.*.*.*.*.*.*.*.*.*.*.*.*.*.*.*.*.*.*.*.*.*.*.*.*.*.*.*.*.*.*.*.o.o.o.o.*.*.*.*.*.*.Y y 5 @ O 4 w b [ *.*.*.*.*.*.*.*.*.*.*.*.*.",
"*.*.*.*.*.*.*.*.*.*.*.*.*.*.*.*.*.*.*.*.*.q b W ..R ~ f 1 s *.*.o.o.o.o.*.*.*.*.*.*.&.*.*.*.E #.*.*.*.*.*.*.*.*.*.*.*.*.*.*.*.*.",
"*.*.*.*.*.*.*.*.*.*.*.*.*.*.*.*.*.*.*.*.*.V x 6 2 O @ 5 y Z *.*.o.o.o.o.*.*.*.*.*.*.*.*.*.*.*.*.*.*.*.*.*.*.*.*.*.*.*.*.*.*.*.*.",
"*.*.*.*.*.*.*.*.;.;.;.;.;.;.;.;.;.;.;.;.*.*.! T f X , U _ o.o.o.o.o.o.o.o.o.o.o.*.*.*.*.;.;.;.;.;.;.;.;.;.;.;.;.*.*.*.*.*.*.*.*.",
"*.*.*.*.*.*.*.*.;.;.;.;.;.;.;.;.;.;.;.;.*.*.*.*.*.*.*.*.o.o.o.o.o.o.o.o.o.o.o.o.*.*.*.*.;.;.;.;.;.;.;.;.;.;.;.;.*.*.*.*.*.*.*.*.",
"*.*.*.*.*.*.*.*.;.;.;.;.;.;.;.;.;.;.;.;.*.*.*.*.*.*.*.*.o.o.o.o.o.o.o.o.o.o.o.o.*.*.*.*.;.;.;.;.;.;.;.;.;.;.;.;.*.*.*.*.*.*.*.*.",
"*.*.*.*.*.*.*.*.;.;.;.;.;.;.;.;.;.;.;.;.*.*.*.*.*.*.*.*.o.o.o.o.o.o.o.o.o.o.o.o.*.*.*.*.;.;.;.;.;.;.;.;.;.;.;.;.*.*.*.*.*.*.*.*.",
"o.o.o.o.*.*.*.*.*.*.*.*.;.;.;.;.;.;.;.;.;.;.;.;.*.*.*.*.*.*.*.*.*.*.*.*.*.*.*.*.;.;.;.;.;.;.;.;.;.;.;.;.*.*.*.*.*.*.*.*.o.o.o.o.",
"o.o.o.o.*.*.*.*.*.*.*.*.;.;.;.;.;.;.;.;.;.;.;.;.*.*.*.*.*.*.*.*.*.*.*.*.*.*.*.*.;.;.;.;.;.;.;.;.;.;.;.;.*.*.*.*.*.*.*.*.o.o.o.o.",
"o.o.o.o.*.*.*.*.*.*.*.*.;.;.;.;.;.;.;.;.;.;.;.;.*.*.*.*.*.*.*.*.*.*.*.*.*.*.*.*.;.;.;.;.;.;.;.;.;.;.;.;.*.*.*.*.*.*.*.*.o.o.o.o.",
"o.o.o.o.*.*.*.*.*.*.*.*.;.;.;.;.;.;.;.;.;.;.;.;.*.*.*.*.*.*.*.*.*.*.*.*.*.*.*.*.;.;.;.;.;.;.;.;.;.;.;.;.*.*.*.*.*.*.*.*.o.o.o.o.",
"o.o.o.o.o.o.o.o.*.*.*.*.*.*.*.*.*.*.*.*.*.*.*.*.*.*.*.*.*.*.*.*.*.*.*.*.*.*.*.*.*.*.*.*.*.*.*.*.*.*.*.*.*.*.*.*.o.o.o.o.o.o.o.o.",
"o.o.o.o.o.o.o.o.*.*.*.*.*.*.*.*.*.*.*.*.*.*.*.*.*.*.*.*.*.*.*.*.*.*.*.*.*.*.*.*.*.*.*.*.*.*.*.*.*.*.*.*.*.*.*.*.o.o.o.o.o.o.o.o.",
"o.o.o.o.o.o.o.o.*.*.*.*.*.*.*.*.*.*.*.*.*.*.*.*.*.*.*.*.*.*.*.*.*.*.*.*.*.*.*.*.*.*.*.*.*.*.*.*.*.*.*.*.*.*.*.*.o.o.o.o.o.o.o.o.",
"o.o.o.o.o.o.o.o.*.*.*.*.*.*.*.*.*.*.*.*.*.*.*.*.*.*.*.*.*.*.*.*.*.*.*.*.*.*.*.*.*.*.*.*.*.*.*.*.*.*.*.*.*.*.*.*.o.o.o.o.o.o.o.o."
};
