/* XPM */
static const char *exit[] = {
/* columns rows colors chars-per-pixel */
"64 64 6 1 ",
"  c #2D594F",
". c #347349",
"X c #3D993D",
"o c #79BF56",
"O c #E8954D",
"+ c #EE9D51",
/* pixels */
"++++++++    ....++++            ++++        ++++        ++++++++",
"++++++++    ....++++            ++++        ++++        ++++++++",
"++++++++    ....++++            ++++        ++++        ++++++++",
"++++++++    ....++++            ++++        ++++        ++++++++",
"OOOO    ooooXXXX....    oooo........    oooooooooooo....++++++++",
"OOOO    ooooXXXX....    oooo........    oooooooooooo....++++++++",
"OOOO    ooooXXXX....    oooo........    oooooooooooo....++++++++",
"OOOO    ooooXXXX....    oooo........    oooooooooooo....++++++++",
"    oooo....ooooXXXX....ooooXXXX....XXXXooooooooooooXXXX....    ",
"    oooo....ooooXXXX....ooooXXXX....XXXXooooooooooooXXXX....    ",
"    oooo....ooooXXXX....ooooXXXX....XXXXooooooooooooXXXX....    ",
"    oooo....ooooXXXX....ooooXXXX....XXXXooooooooooooXXXX....    ",
"....XXXXooooooooooooXXXXooooooooooooooooooooooooooooooooXXXX    ",
"....XXXXooooooooooooXXXXooooooooooooooooooooooooooooooooXXXX    ",
"....XXXXooooooooooooXXXXooooooooooooooooooooooooooooooooXXXX    ",
"....XXXXooooooooooooXXXXooooooooooooooooooooooooooooooooXXXX    ",
"++++....XXXXoooooooooooooooooooooooooooooooooooooooooooo    ++++",
"++++....XXXXoooooooooooooooooooooooooooooooooooooooooooo    ++++",
"++++....XXXXoooooooooooooooooooooooooooooooooooooooooooo    ++++",
"++++....XXXXoooooooooooooooooooooooooooooooooooooooooooo    ++++",
"        ....XXXXooooooooooooooooooooooooooooooooooooXXXXXXXX    ",
"        ....XXXXooooooooooooooooooooooooooooooooooooXXXXXXXX    ",
"        ....XXXXooooooooooooooooooooooooooooooooooooXXXXXXXX    ",
"        ....XXXXooooooooooooooooooooooooooooooooooooXXXXXXXX    ",
"    XXXXoooooooooooooooooooooooooooooooooooooooooooooooo        ",
"    XXXXoooooooooooooooooooooooooooooooooooooooooooooooo        ",
"    XXXXoooooooooooooooooooooooooooooooooooooooooooooooo        ",
"    XXXXoooooooooooooooooooooooooooooooooooooooooooooooo        ",
"++++....XXXXoooooooooooooooooooooooooooooooooooooooo....oooo++++",
"++++....XXXXoooooooooooooooooooooooooooooooooooooooo....oooo++++",
"++++....XXXXoooooooooooooooooooooooooooooooooooooooo....oooo++++",
"++++....XXXXoooooooooooooooooooooooooooooooooooooooo....oooo++++",
"++++OOOO....ooooooooooooooooooooooooooooooooooooooooXXXX....++++",
"++++OOOO....ooooooooooooooooooooooooooooooooooooooooXXXX....++++",
"++++OOOO....ooooooooooooooooooooooooooooooooooooooooXXXX....++++",
"++++OOOO....ooooooooooooooooooooooooooooooooooooooooXXXX....++++",
"        ooooooooooooooooooooooooooooooooooooooooooooooooXXXX    ",
"        ooooooooooooooooooooooooooooooooooooooooooooooooXXXX    ",
"        ooooooooooooooooooooooooooooooooooooooooooooooooXXXX    ",
"        ooooooooooooooooooooooooooooooooooooooooooooooooXXXX    ",
"    XXXXXXXXooooooooooooooooooooooooooooooooooooooooooooXXXX    ",
"    XXXXXXXXooooooooooooooooooooooooooooooooooooooooooooXXXX    ",
"    XXXXXXXXooooooooooooooooooooooooooooooooooooooooooooXXXX    ",
"    XXXXXXXXooooooooooooooooooooooooooooooooooooooooooooXXXX    ",
"++++ooooooooooooooooooooooooooooooooooooooooooooXXXX....    ++++",
"++++ooooooooooooooooooooooooooooooooooooooooooooXXXX....    ++++",
"++++ooooooooooooooooooooooooooooooooooooooooooooXXXX....    ++++",
"++++ooooooooooooooooooooooooooooooooooooooooooooXXXX....    ++++",
"    ooooooooooooooooooooooooooooooooooooooooooooooooooooXXXX....",
"    ooooooooooooooooooooooooooooooooooooooooooooooooooooXXXX....",
"    ooooooooooooooooooooooooooooooooooooooooooooooooooooXXXX....",
"    ooooooooooooooooooooooooooooooooooooooooooooooooooooXXXX....",
"    ....XXXXooooXXXXooooXXXX....XXXXooooXXXXoooooooo....oooo    ",
"    ....XXXXooooXXXXooooXXXX....XXXXooooXXXXoooooooo....oooo    ",
"    ....XXXXooooXXXXooooXXXX....XXXXooooXXXXoooooooo....oooo    ",
"    ....XXXXooooXXXXooooXXXX....XXXXooooXXXXoooooooo....oooo    ",
"OOOO++++....XXXX....XXXX    ........XXXX....XXXXXXXXoooo    OOOO",
"OOOO++++....XXXX....XXXX    ........XXXX....XXXXXXXXoooo    OOOO",
"OOOO++++....XXXX....XXXX    ........XXXX....XXXXXXXXoooo    OOOO",
"OOOO++++....XXXX....XXXX    ........XXXX....XXXXXXXXoooo    OOOO",
"OOOOOOOO        ++++        ++++            ++++....    OOOOOOOO",
"OOOOOOOO        ++++        ++++            ++++....    OOOOOOOO",
"OOOOOOOO        ++++        ++++            ++++....    OOOOOOOO",
"OOOOOOOO        ++++        ++++            ++++....    OOOOOOOO"
};
