/* XPM */
static const char *floor[] = {
/* columns rows colors chars-per-pixel */
"64 64 3 1 ",
"  c #E8954D",
". c #EE9D51",
"X c #F0A254",
/* pixels */
"................................................................",
"................................................................",
"................................................................",
"................................................................",
"    ........        ............................................",
"    ........        ............................................",
"    ........        ............................................",
"    ........        ............................................",
"        ........        ....XXXXXXXX........XXXXXXXXXXXX........",
"        ........        ....XXXXXXXX........XXXXXXXXXXXX........",
"        ........        ....XXXXXXXX........XXXXXXXXXXXX........",
"        ........        ....XXXXXXXX........XXXXXXXXXXXX........",
"................................................XXXXXXXXXXXX....",
"................................................XXXXXXXXXXXX....",
"................................................XXXXXXXXXXXX....",
"................................................XXXXXXXXXXXX....",
"............XXXXXXXXXXXX........                ................",
"............XXXXXXXXXXXX........                ................",
"............XXXXXXXXXXXX........                ................",
"............XXXXXXXXXXXX........                ................",
"........XXXXXXXXXXXX................        ........XXXXXXXXXXXX",
"........XXXXXXXXXXXX................        ........XXXXXXXXXXXX",
"........XXXXXXXXXXXX................        ........XXXXXXXXXXXX",
"........XXXXXXXXXXXX................        ........XXXXXXXXXXXX",
"........................................................XXXXXXXX",
"........................................................XXXXXXXX",
"........................................................XXXXXXXX",
"........................................................XXXXXXXX",
"............................................XXXXXXXX............",
"............................................XXXXXXXX............",
"............................................XXXXXXXX............",
"............................................XXXXXXXX............",
"....        ....XXXXXXXXXXXX............XXXXXXXX................",
"....        ....XXXXXXXXXXXX............XXXXXXXX................",
"....        ....XXXXXXXXXXXX............XXXXXXXX................",
"....        ....XXXXXXXXXXXX............XXXXXXXX................",
"....................XXXXXXXXXXXX................................",
"....................XXXXXXXXXXXX................................",
"....................XXXXXXXXXXXX................................",
"....................XXXXXXXXXXXX................................",
"........................XXXXXXXXXXXX............        ........",
"........................XXXXXXXXXXXX............        ........",
"........................XXXXXXXXXXXX............        ........",
"........................XXXXXXXXXXXX............        ........",
"........XXXXXXXX............................                ....",
"........XXXXXXXX............................                ....",
"........XXXXXXXX............................                ....",
"........XXXXXXXX............................                ....",
"................................    ............................",
"................................    ............................",
"................................    ............................",
"................................    ............................",
"........XXXXXXXXXXXX........            ....XXXXXXXXXXXX........",
"........XXXXXXXXXXXX........            ....XXXXXXXXXXXX........",
"........XXXXXXXXXXXX........            ....XXXXXXXXXXXX........",
"........XXXXXXXXXXXX........            ....XXXXXXXXXXXX........",
"    ........XXXXXXXXXXXX................XXXXXXXXXXXX........    ",
"    ........XXXXXXXXXXXX................XXXXXXXXXXXX........    ",
"    ........XXXXXXXXXXXX................XXXXXXXXXXXX........    ",
"    ........XXXXXXXXXXXX................XXXXXXXXXXXX........    ",
"        ................................................        ",
"        ................................................        ",
"        ................................................        ",
"        ................................................        "
};
