/* XPM */
static const char *player[] = {
/* columns rows colors chars-per-pixel */
"64 64 17 1 ",
"  c black",
". c #260E21",
"X c #4A2123",
"o c #8A3625",
"O c #AE4924",
"+ c #A26836",
"@ c #A66E39",
"# c #A8713B",
"$ c #CC4841",
"% c #FF7073",
"& c #E8954D",
"* c #EE9D51",
"= c #F0A254",
"- c #8A9DB8",
"; c #FFA399",
": c #C7CFDE",
"> c white",
/* pixels */
"****************************************************************",
"****************************************************************",
"****************************************************************",
"****************************************************************",
"&&&&********&&&&&&&&********************************************",
"&&&&********&&&&&&&&********************************************",
"&&&&********&&&&&&&&********************************************",
"&&&&********&&&&&&&&*********************...........************",
"&&&&&&&&********&&&&&&&&****========*****...........====********",
"&&&&&&&&********&&&&&&&&****========*****...........====********",
"&&&&&&&&********&&&&&&&&**...............ooo>>>OOooo............",
"&&&&&&&&********&&&&&&&&**...............ooo>>>OOooo............",
"**************************...............ooo>>>OOooo............",
"**************************...oooOOOOOOOOOOOO>>>>>OOOXXXoooOOO...",
"**************************...oooOOOOOOOOOOOO>>>>>OOOXXXoooOOO...",
"**************************...oooOOOOOOOOOOOO>>>>>OOOXXXoooOOO...",
"************============*****...oooOOOoooOOOooo>>>>>oooXXX...***",
"************============*****...oooOOOoooOOOooo>>>>>oooXXX...***",
"************============*****...oooOOOoooOOOooo>>>>>oooXXX...***",
"************============********...oooOOOOOO   >>>>>   ...******",
"********============************...oooOOOOOO   >>>>>   ...======",
"********=========...............XXXOOOOOOOOO   >>>>>   ...======",
"********=========...............XXXOOOOOOOOO   >>>>>   ...======",
"********=========...............XXXOOOOOOOOO   >>>>>   ...======",
"*********........OOOOOOOOOOOOOOO:::OOOOOOOOO;;;;;$$$%%%$$$...===",
"*********........OOOOOOOOOOOOOOO:::OOOOOOOOO;;;;;$$$%%%$$$...===",
"*********........OOOOOOOOOOOOOOO:::OOOOOOOOO;;;;;$$$%%%$$$...===",
"***......::::::OOOOOOOOOOOOOO>>>>>>:::XXX%%%;;;;;%%%%%%%%%...===",
"***......::::::OOOOOOOOOOOOOO>>>>>>:::XXX%%%;;;;;%%%%%%%%%...***",
"***......::::::OOOOOOOOOOOOOO>>>>>>:::XXX%%%;;;;;%%%%%%%%%...***",
"...XXX:::>>>:::>>>>>>>>>>>>>>OOOOOOOOO:::XXXXXX...........******",
"...XXX:::>>>:::>>>>>>>>>>>>>>OOOOOOOOO:::XXXXXX...........******",
"...XXX:::>>>:::>>>>>>>>>>>>>>OOOOOOOOO:::XXXXXX...........******",
"...:::...--->>>>>OOOOOO>>>>>>OOOOOO>>>>>>::::::..***************",
"...:::...--->>>>>OOOOOO>>>>>>OOOOOO>>>>>>::::::..***************",
"...:::...--->>>>>OOOOOO>>>>>>OOOOOO>>>>>>::::::..***************",
"...XXX...>>>:::OOOOO>>>>>>>>>>>>>>>>>>>>>::::::..***************",
"...XXX...>>>:::OOOOO>>>>>>>>>>>>>>>>>>>>>::::::..***************",
"...XXX...>>>:::OOOOO>>>>>>>>>>>>>>>>>>>>>::::::..***************",
"***......:::>>>>>>>>OOOOOOOOOOOO>>>>>>>>>::::::..***************",
"***......:::>>>>>>>>OOOOOOOOOOOO>>>>>>>>>::::::..&&&&&&&********",
"***......:::>>>>>>>>OOOOOOOOOOOO>>>>>>>>>::::::..&&&&&&&********",
"******...:::>>>>>OOOOOOOOOOOO>>>>>>>>>:::---:::..&&&&&&&********",
"******...:::>>>>>OOOOOOOOOOOO>>>>>>>>>:::---:::..&&&&&&&********",
"******...:::>>>>>OOOOOOOOOOOO>>>>>>>>>:::---:::..&&&&&&&&&&&****",
"********=...>>>>>>>>............>>>>>>...---...&&&&&&&&&&&&&****",
"********=...>>>>>>>>............>>>>>>...---...&&&&&&&&&&&&&****",
"********=...>>>>>>>>............>>>>>>...---...&&&&&&&&&&&&&****",
"*********...:::>>...;;;%%%......>>>>>>...---...*****************",
"*********...:::>>...;;;%%%......>>>>>>...---...*****************",
"*********...:::>>.........***...:::>>>...---...*****************",
"*********...:::>>.........***...:::>>>...---...*****************",
"********=...:::>>.........**&...:::>>>...---...=========********",
"******@@#...XXX::...@@@@@@@@+...XXX>>>...XXX...##=======********",
"******@@#...XXX::...@@@@@@@@+...XXX>>>...XXX...##=======********",
"******@@#...XXX::...@@@@@@@@+...XXX>>>...XXX...##=======********",
"&&&+@@@@@@@@...XX...####@@@@@@@@...XXX...###########********&&&&",
"&&&+@@@@@@@@...XX...####@@@@@@@@...XXX...###########********&&&&",
"&&&+@@@@@@@@...XX...####@@@@@@@@...XXX...###########********&&&&",
"&&&&**@@@@@@############@@@@@@@@@@@@@@@@#########===********&&&&",
"&&&&&&++@@@@@@@@@@@@@@@@@@@@@@@@@@@@@@@@@@@@@@@@@*******&&&&&&&&",
"&&&&&&++@@@@@@@@@@@@@@@@@@@@@@@@@@@@@@@@@@@@@@@@@*******&&&&&&&&",
"&&&&&&&&************************************************&&&&&&&&",
"&&&&&&&&************************************************&&&&&&&&"
};
