/* XPM */
static const char *player_left[] = {
/* columns rows colors chars-per-pixel */
"64 64 17 1 ",
"  c black",
". c #260E21",
"X c #4A2123",
"o c #8A3625",
"O c #AE4924",
"+ c #A26836",
"@ c #A66E39",
"# c #A8713B",
"$ c #CC4841",
"% c #FF7073",
"& c #E8954D",
"* c #EE9D51",
"= c #F0A254",
"- c #8A9DB8",
"; c #FFA399",
": c #C7CFDE",
"> c white",
/* pixels */
"****************************************************************",
"****************************************************************",
"****************************************************************",
"****************************************************************",
"&&&&********&&&&&&&&********************************************",
"&&&&********&&&&&&&&********************************************",
"&&&&********&&&&&&&&********************************************",
"&&&&********...........*****************************************",
"&&&&&&&&****...........&****========********============********",
"&&&&&&&&****...........&****========********============********",
"............oooOO>>>ooo...............******============********",
"............oooOO>>>ooo...............******============********",
"............oooOO>>>ooo...............**********============****",
"...OOOoooXXXOOO>>>>>OOOOOOOOOOOOooo...**********============****",
"...OOOoooXXXOOO>>>>>OOOOOOOOOOOOooo...**********============****",
"...OOOoooXXXOOO>>>>>OOOOOOOOOOOOooo...**********============****",
"***...XXXooo>>>>>oooOOOoooOOOooo...&&&&&&&&&&&&&****************",
"***...XXXooo>>>>>oooOOOoooOOOooo...&&&&&&&&&&&&&****************",
"***...XXXooo>>>>>oooOOOoooOOOooo...&&&&&&&&&&&&&****************",
"******...   >>>>>   OOOOOOooo...&&&&&&&&&&&&&&&&****************",
"******...   >>>>>   OOOOOOooo...****&&&&&&&&********============",
"******...   >>>>>   OOOOOOOOOXXX...............*****============",
"******...   >>>>>   OOOOOOOOOXXX...............*****============",
"******...   >>>>>   OOOOOOOOOXXX...............*****============",
"***...$$$%%%$$$;;;;;OOOOOOOOO:::OOOOOOOOOOOOOOO........*========",
"***...$$$%%%$$$;;;;;OOOOOOOOO:::OOOOOOOOOOOOOOO........*========",
"***...$$$%%%$$$;;;;;OOOOOOOOO:::OOOOOOOOOOOOOOO........*========",
"***...%%%%%%%%%;;;;;%%%XXX:::>>>>>>OOOOOOOOOOOOOO::::::......===",
"***...%%%%%%%%%;;;;;%%%XXX:::>>>>>>OOOOOOOOOOOOOO::::::......***",
"***...%%%%%%%%%;;;;;%%%XXX:::>>>>>>OOOOOOOOOOOOOO::::::......***",
"******...........XXXXXX:::OOOOOOOOO>>>>>>>>>>>>>>:::>>>:::XXX...",
"******...........XXXXXX:::OOOOOOOOO>>>>>>>>>>>>>>:::>>>:::XXX...",
"****&&...........XXXXXX:::OOOOOOOOO>>>>>>>>>>>>>>:::>>>:::XXX...",
"****&&&&&&&&***..::::::>>>>>>OOOOOO>>>>>>OOOOOO>>>>>---...:::...",
"****&&&&&&&&***..::::::>>>>>>OOOOOO>>>>>>OOOOOO>>>>>---...:::...",
"****&&&&&&&&***..::::::>>>>>>OOOOOO>>>>>>OOOOOO>>>>>---...:::...",
"***************..::::::>>>>>>>>>>>>>>>>>>>>>OOOOO:::>>>...XXX...",
"***************..::::::>>>>>>>>>>>>>>>>>>>>>OOOOO:::>>>...XXX...",
"***************..::::::>>>>>>>>>>>>>>>>>>>>>OOOOO:::>>>...XXX...",
"***************..::::::>>>>>>>>>OOOOOOOOOOOO>>>>>>>>:::......***",
"***************..::::::>>>>>>>>>OOOOOOOOOOOO>>>>>>>>:::......***",
"***************..::::::>>>>>>>>>OOOOOOOOOOOO>>>>>>>>:::......***",
"***************..:::---:::>>>>>>>>>OOOOOOOOOOOO>>>>>:::...******",
"***************..:::---:::>>>>>>>>>OOOOOOOOOOOO>>>>>:::...******",
"********=======..:::---:::>>>>>>>>>OOOOOOOOOOOO>>>>>:::...&&****",
"********========*...---...>>>>>>............>>>>>>>>...&&&&&****",
"********========*...---...>>>>>>............>>>>>>>>...&&&&&****",
"********========*...---...>>>>>>............>>>>>>>>...&&&&&****",
"*****************...---...>>>>>>......%%%;;;...>>:::...*********",
"*****************...---...>>>>>>......%%%;;;...>>:::...*********",
"*****************...---...>>>:::...&**.........>>:::...*********",
"*****************...---...>>>:::...&**.........>>:::...*********",
"********=========...---...>>>:::...&&&.........>>:::...=********",
"********=======##...XXX...>>>XXX...+++++@@@@...::XXX...#@@******",
"********=======##...XXX...>>>XXX...+++++@@@@...::XXX...#@@******",
"********=======##...XXX...>>>XXX...+++++@@@@...::XXX...#@@******",
"&&&&********###########...XXX...@@@@@@@@####...XX...@@@@@@@@+&&&",
"&&&&********###########...XXX...@@@@@@@@####...XX...@@@@@@@@+&&&",
"&&&&********###########...XXX...@@@@@@@@####...XX...@@@@@@@@+&&&",
"&&&&********===#########@@@@@@@@@@@@@@@@############@@@@@@**&&&&",
"&&&&&&&&*******@@@@@@@@@@@@@@@@@@@@@@@@@@@@@@@@@@@@@@@@@++&&&&&&",
"&&&&&&&&*******@@@@@@@@@@@@@@@@@@@@@@@@@@@@@@@@@@@@@@@@@++&&&&&&",
"&&&&&&&&************************************************&&&&&&&&",
"&&&&&&&&************************************************&&&&&&&&"
};
