/* XPM */
static const char *wall[] = {
/* columns rows colors chars-per-pixel */
"64 64 10 1 ",
"  c #1C0A18",
". c #32131E",
"X c #4A2123",
"o c #8A3625",
"O c #A66E39",
"+ c #A8713B",
"@ c #C46120",
"# c #E8954D",
"$ c #EE9D51",
"% c #F0A254",
/* pixels */
"$$$   ......   $$$$$$$$$$$$$$$$$$$$$$$$$$$$$$$$$$   ......   $$$",
"$$$   ......   $$$$$$$$$$$$$$$$$$$$$$$$$$$$$$$$$$   ......   $$$",
"$$$   ......   $$$$$$$$$$$$$$$$$$$$$$$$$$$$$$$$$$   ......   $$$",
"   ...@@@@@@...  $$$$$$$$$$$$$$$$$$$$$$$$$$$$$$  ...@@@@@@...   ",
"   ...@@@@@@...  ###$$$$$$$$$$$$$$$$$$$$$$$$$$$  ...@@@@@@...   ",
"   ...@@@@@@...  ###$$$$$$$$$$$$$$$$$$$$$$$$$$$  ...@@@@@@...   ",
"...@@@@@@@@@@@@..                              ..@@@@@@@@@@@@...",
"...@@@@@@@@@@@@..                              ..@@@@@@@@@@@@...",
"...@@@@@@@@@@@@..                              ..@@@@@@@@@@@@...",
"...XXX@@@@@@XXX..oooooooooooooooooooooooooooooo..XXX@@@@@@XXX...",
"...XXX@@@@@@XXX..oooooooooooooooooooooooooooooo..XXX@@@@@@XXX...",
"...XXX@@@@@@XXX..oooooooooooooooooooooooooooooo..XXX@@@@@@XXX...",
"...oooXXXXXXXXX..XXXXXXXXXXXXXXXXXXXXXXXXXXXXXX..oooXXXXXXXXX...",
"...oooXXXXXXXXX..XXXXXXXXXXXXXXXXXXXXXXXXXXXXXX..oooXXXXXXXXX...",
"...oooXXXXXXXXX..XXXXXXXXXXXXXXXXXXXXXXXXXXXXXX..oooXXXXXXXXX...",
"...oooooooooXXX..                              ..oooooooooXXX...",
"...oooooooooXXX..                              ..oooooooooXXX...",
"...oooooooooXXX..                              ..oooooooooXXX...",
"...oooooooooXXX..%%%%%%%$$$$$$$$###############..oooooooooXXX...",
"...oooooooooXXX..%%%%%%%$$$$$$$$###############..oooooooooXXX...",
"...oooooooooXXX..%%%$$$$$$$$$$$$$$$$########$$$..oooooooooXXX...",
"...oooooooooXXX..%%%$$$$$$$$$$$$$$$$########$$$..oooooooooXXX...",
"...oooooooooXXX..%%%$$$$$$$$$$$$$$$$########$$$..oooooooooXXX...",
"...oooooooooXXX..%%%$$$$$$$$$$$$$$$$########$$$..oooooooooXXX...",
"...oooooooooXXX..$$$$$$$$$$$$$$$$$$$$$$$$$$$$$$..oooooooooXXX...",
"...oooooooooXXX..$$$$$$$$$$$$$$$$$$$$$$$$$$$$$$..oooooooooXXX...",
"...oooooooooXXX..                              ..oooooooooXXX...",
"...oooooooooXXX..                              ..oooooooooXXX...",
"...oooooooooXXX..                              ..oooooooooXXX...",
"   oooooooooXXX  oooooooooooooooooooooooooooooo  oooooooooXXX   ",
"   oooooooooXXX  oooooooooooooooooooooooooooooo  oooooooooXXX   ",
"   oooooooooXXX  oooooooooooooooooooooooooooooo  oooooooooXXX   ",
"   oooooooooXXX  XXXXXXXXXXXXXXXXXXXXXXXXXXXXXX  oooooooooXXX   ",
"   oooooooooXXX  XXXXXXXXXXXXXXXXXXXXXXXXXXXXXX  oooooooooXXX   ",
"   oooooooooXXX  XXXXXXXXXXXXXXXXXXXXXXXXXXXXXX  oooooooooXXX   ",
"   oooooooooXXX                                ..oooooooooXXX...",
"   oooooooooXXX                                ..oooooooooXXX...",
"   oooooooooXXX                                ..oooooooooXXX...",
"   oooooooooXXX  $$$%%%%%%%%%%%%$$$$$$$$$$$$$$$  oooooooooXXX   ",
"...oooooooooXXX..$$$%%%%%%%%%%%%$$$$$$$$$$$$$$$  oooooooooXXX   ",
"...oooooooooXXX..$$$$$$$%%%%%%%%%%%%$$$$$$$$$$$  oooooooooXXX   ",
"...oooooooooXXX..$$$$$$$%%%%%%%%%%%%$$$$$$$$$$$  oooooooooXXX   ",
"   oooooooooXXX  $$$$$$$%%%%%%%%%%%%$$$$$$$$$$$  oooooooooXXX   ",
"   oooooooooXXX  $$$$$$$%%%%%%%%%%%%$$$$$$$$$$$  oooooooooXXX   ",
"   oooooooooXXX  $$$$$$$$$$$$$$$$$$$$$$$$$$$###  oooooooooXXX   ",
"...oooooooooXXX..$$$$$$$$$$$$$$$$$$$$$$$$$$$###..oooooooooXXX...",
"...oooooooooXXX..                              ..oooooooooXXX...",
"...oooooooooXXX..                              ..oooooooooXXX...",
"...oooooooooXXX..                              ..oooooooooXXX...",
"   oooooooooXXX  oooooooooooooooooooooooooooooo  oooooooooXXX   ",
"   oooooooooXXX  oooooooooooooooooooooooooooooo  oooooooooXXX   ",
"   oooooooooXXX  oooooooooooooooooooooooooooooo  oooooooooXXX   ",
"   oooooooooXXX  XXXXXXXXXXXXXXXXXXXXXXXXXXXXXX  oooooooooXXX   ",
"   oooooooooXXX  XXXXXXXXXXXXXXXXXXXXXXXXXXXXXX  oooooooooXXX   ",
"   oooooooooXXX  XXXXXXXXXXXXXXXXXXXXXXXXXXXXXX  oooooooooXXX   ",
"   oooooooooXXX                                  oooooooooXXX   ",
"   oooooooooXXX                                  oooooooooXXX   ",
"   oooooooooXXX                                  oooooooooXXX   ",
"   oooooooooXXX  +++++++OOOOOOOOOOOOOOOO+++++++  oooooooooXXX   ",
"   oooooooooXXX  +++++++OOOOOOOOOOOOOOOO+++++++  oooooooooXXX   ",
"   oooooooooXXX  OOOOOOOOOOOOOOOOOOOOOOOOOOOOOO  oooooooooXXX   ",
"   XXXooooooXXX  OOO$$$$$$$$$$$$$$$$$$$$$$$$OOO  XXXooooooXXX   ",
"   XXXooooooXXX  OOO$$$$$$$$$$$$$$$$$$$$$$$$OOO  XXXooooooXXX   ",
"   XXXooooooXXX  OOO$$$$$$$$$$$$$$$$$$$$$$$$OOO  XXXooooooXXX   "
};
